<svg width="80" height="80" viewBox="0 0 80 80" fill="none" xmlns="http://www.w3.org/2000/svg">
<path d="M40 80C62.0914 80 80 62.0914 80 40C80 17.9086 62.0914 0 40 0C17.9086 0 0 17.9086 0 40C0 62.0914 17.9086 80 40 80Z" fill="#EBB9B9"/>
<path fill-rule="evenodd" clip-rule="evenodd" d="M30.665 42.1737C29.0505 42.1737 28.3059 42.1977 26.8134 41.4671C24.5994 40.383 22.6624 37.8297 22.6624 35.3871C22.6624 33.5848 22.6 33.0868 23.4386 31.4024C23.9966 30.2808 23.9874 30.4903 24.5438 29.7724C24.7353 29.525 24.7317 29.4882 24.9755 29.2927C26.5144 28.06 27.9493 27.2834 30.1585 27.2834C36.7589 27.2834 39.9242 35.4219 35.5042 39.9226C34.5098 40.935 32.6147 42.1741 30.665 42.1741V42.1737ZM26.9169 22.7247C26.177 22.7411 24.3696 23.6113 23.8779 23.9402C23.1409 23.5501 20.8761 21.7119 20.5352 21.7119C19.9548 21.7119 19.2037 22.6888 18.8384 23.0541C16.678 25.2149 16.5728 24.8164 17.9015 26.5743C19.4463 28.6188 19.3772 28.3458 18.9367 29.1293L18.2668 30.6881C18.1733 30.9743 18.1053 31.3237 18.0026 31.5383L14.4464 32.1351C14.1594 32.2158 14.157 32.1918 14.0103 32.4081C13.7073 32.8553 13.8492 35.7113 13.8492 36.603C13.8492 37.5079 14.7802 37.4332 15.6147 37.5727C16.3602 37.6974 17.2627 37.92 18.0026 37.92C18.3667 39.4837 19.1442 40.7252 19.1773 40.9019C19.2565 41.3216 17.8635 43.0119 17.5965 43.3893C17.0181 44.2059 16.6924 44.279 17.5202 45.0876C20.3741 47.876 20.0835 48.2685 21.2878 47.3843C21.594 47.1593 21.8062 47.0066 22.1152 46.7936C22.7148 46.3799 23.1912 46.0109 23.7768 45.6188C24.2704 45.7339 24.7285 46.0853 25.2365 46.2863C25.8285 46.521 26.289 46.6876 26.9173 46.8343C26.9173 47.5742 27.1399 48.4763 27.2646 49.2222C27.6244 51.3758 27.0484 50.9877 31.9824 50.9877C32.833 50.9877 32.7662 50.1399 32.8797 49.454C33.4625 45.9322 32.6807 47.2916 35.527 46.0233C35.7061 45.9434 36.2081 45.6188 36.338 45.6188C36.6646 45.6188 39.2683 47.8472 39.6808 47.8472C40.0889 47.8472 43.1251 44.811 43.1251 44.4029C43.1251 44.0084 42.7933 43.6714 42.4743 43.2302C42.183 42.8273 41.9479 42.5219 41.6661 42.1138C40.5473 40.4934 40.8739 41.7844 42.065 38.2782C42.2037 37.8701 42.151 37.9688 42.5935 37.8949L45.1224 37.4864C46.6553 37.2421 46.2652 37.3828 46.2652 32.6523C46.2652 32.014 44.9881 32.0188 44.3694 31.9144C43.7486 31.8101 42.7601 31.5919 42.1122 31.5379C42.093 30.6857 41.2292 29.1277 40.8967 28.4989C43.6035 24.4567 43.8921 25.6698 41.5298 23.3075C39.2363 21.014 40.4326 21.199 36.3384 23.9406C35.5926 23.5461 34.1676 22.7975 33.2994 22.7251C33.2862 22.1264 33.0484 21.1163 32.9377 20.4532C32.546 18.1089 33.2663 18.5718 28.1332 18.5718C27.6112 18.5718 27.5292 18.804 27.4421 19.1977L26.9173 22.7251L26.9169 22.7247Z" fill="#832B33"/>
<path fill-rule="evenodd" clip-rule="evenodd" d="M49.7091 49.3656C49.7091 47.708 51.216 46.2255 52.5454 46.2255H53.1533C55.5376 46.2255 57.3291 49.3376 55.3074 51.6212C53.5047 53.6577 49.7091 52.4486 49.7091 49.3656ZM50.5193 40.654C49.831 40.8143 49.0559 41.1668 48.4931 41.4642C45.7867 39.6519 46.3767 39.3769 44.6691 41.0845C42.8557 42.8979 43.1027 42.1033 45.0489 45.0096C44.7179 45.3905 44.277 46.4705 44.2386 46.9342C40.7036 47.7576 41.1997 46.3422 41.1997 50.8849C41.1997 51.5564 42.8245 51.6352 43.6671 51.7603C44.7491 51.9206 44.1435 52.7811 45.0489 53.8224C44.7834 54.2189 44.5112 54.6066 44.2099 55.0095C43.0759 56.5252 43.1754 56.2542 44.6184 57.6971C46.1057 59.1845 45.8938 59.222 47.2932 58.194C48.8813 57.0272 48.1622 57.3166 49.6207 57.861C50.2786 58.1064 50.4501 57.8938 50.5844 58.6193C51.1272 61.5551 50.1759 61.1158 54.4696 61.1158C55.0847 61.1158 55.1267 59.8516 55.223 59.2356C55.4589 57.7255 55.225 58.3127 56.4254 57.8039C57.5869 57.3118 57.0769 57.1236 58.1365 57.8542C60.0131 59.1481 59.6674 59.3116 61.0792 57.8998C61.4021 57.5768 61.9897 57.0632 62.2339 56.7191C62.6692 56.1055 62.2239 55.7614 61.849 55.2561C61.4936 54.7769 61.1763 54.308 60.8513 53.8228L61.1591 53.3199C61.9805 51.6528 60.8305 51.9641 63.7196 51.5248C65.0163 51.3274 64.7009 50.9089 64.7009 48.1501C64.7009 47.0605 63.3923 47.3375 61.6619 46.9346C61.6152 46.3722 61.0832 45.3466 60.8517 44.9085L61.3382 44.2809C62.674 42.3052 62.9894 42.8428 61.1299 40.9833C59.5467 39.4001 60.0955 39.6647 57.4074 41.4646C56.845 41.1668 56.0696 40.8147 55.3813 40.6544C55.3693 40.122 55.1655 39.2742 55.0799 38.7274C54.8621 37.3332 54.4272 37.6158 51.937 37.6158C51.0249 37.6158 50.9294 37.926 50.8059 38.7134C50.7255 39.2274 50.5309 40.1116 50.5189 40.6548L50.5193 40.654Z" fill="#832B33"/>
<path fill-rule="evenodd" clip-rule="evenodd" d="M50.9246 28.5994C50.9246 28.2928 51.2907 28.063 51.5917 28.1302C51.8643 28.1909 52.0977 28.5367 52.3427 28.7005C52.5086 28.4531 54.3469 26.4722 54.7737 26.4722C55.1063 26.4722 55.8605 26.7723 54.7997 27.8148C54.3493 28.2573 53.9795 28.6342 53.533 29.0807C53.1765 29.4372 52.6681 30.227 52.1253 30.044C51.7332 29.9121 50.9246 29.0895 50.9246 28.5994ZM47.278 27.9915C47.278 29.1258 47.3715 29.7977 47.7836 30.7271C48.1026 31.4465 48.4935 31.8886 49.0251 32.4234C52.8092 36.229 59.0286 33.2872 59.0286 28.2952C59.0286 25.2283 56.401 22.4199 53.356 22.4199C49.8286 22.4199 47.278 25.0492 47.278 27.9915Z" fill="#EBB9B9"/>
<path fill-rule="evenodd" clip-rule="evenodd" d="M25.3976 38.2234C25.3976 39.2187 26.2194 40.148 27.2211 40.148H33.0964C33.8174 40.148 35.7085 38.9569 34.1536 36.6598C32.6343 34.4158 29.2704 33.7987 26.9401 35.7137C26.2777 36.2581 25.398 37.2354 25.398 38.2234H25.3976Z" fill="#832B33"/>
<path fill-rule="evenodd" clip-rule="evenodd" d="M27.8286 30.5239C27.8286 31.6707 27.6559 32.8838 28.6188 33.684C29.0817 34.0685 29.7628 34.2668 30.3796 34.1908C33.018 33.8647 32.552 29.9567 31.8985 29.0873C30.6078 27.3694 27.8282 28.2072 27.8282 30.5239H27.8286Z" fill="#832B33"/>
</svg>
