<svg width="55" height="10" viewBox="0 0 55 10" fill="none" xmlns="http://www.w3.org/2000/svg">
<path d="M5.75302 8.37019L3.15163 9.93661C3.07704 9.98323 2.99778 10.0042 2.91387 9.99955C2.82995 9.99489 2.75536 9.96925 2.69009 9.92263C2.62483 9.87601 2.57588 9.8154 2.54324 9.74081C2.51061 9.66622 2.50361 9.5823 2.52226 9.48906L3.20757 6.52404L0.91388 4.52405C0.839288 4.45879 0.794999 4.38653 0.781013 4.30727C0.767027 4.22802 0.769358 4.1511 0.788006 4.0765C0.806654 4.00191 0.848612 3.93898 0.91388 3.88769C0.979147 3.83641 1.0584 3.80611 1.15164 3.79679L4.18659 3.53105L5.36141 0.733864C5.3987 0.649948 5.45465 0.587011 5.52924 0.545053C5.60383 0.503096 5.67842 0.482117 5.75302 0.482117C5.82761 0.482117 5.9022 0.503096 5.97679 0.545053C6.05138 0.587011 6.10733 0.649948 6.14462 0.733864L7.31944 3.53105L10.3544 3.79679C10.4476 3.80611 10.5269 3.83641 10.5922 3.88769C10.6574 3.93898 10.6994 4.00191 10.718 4.0765C10.7367 4.1511 10.739 4.22802 10.725 4.30727C10.711 4.38653 10.6667 4.45879 10.5922 4.52405L8.29846 6.52404L8.98377 9.48906C9.00242 9.5823 8.99542 9.66622 8.96279 9.74081C8.93015 9.8154 8.8812 9.87601 8.81594 9.92263C8.75067 9.96925 8.67608 9.99489 8.59216 9.99955C8.50825 10.0042 8.42899 9.98323 8.3544 9.93661L5.75302 8.37019Z" fill="url(#paint0_linear_212_83)"/>
<path d="M16.95 8.37001L14.3486 9.93643C14.274 9.98305 14.1947 10.004 14.1108 9.99937C14.0269 9.99471 13.9523 9.96906 13.887 9.92245C13.8218 9.87582 13.7728 9.81522 13.7402 9.74063C13.7076 9.66604 13.7006 9.58212 13.7192 9.48888L14.4045 6.52386L12.1108 4.52387C12.0362 4.4586 11.9919 4.38634 11.978 4.30709C11.964 4.22784 11.9663 4.15091 11.985 4.07632C12.0036 4.00173 12.0456 3.93879 12.1108 3.88751C12.1761 3.83623 12.2553 3.80593 12.3486 3.7966L15.3835 3.53087L16.5584 0.733681C16.5957 0.649765 16.6516 0.586828 16.7262 0.54487C16.8008 0.502913 16.8754 0.481934 16.95 0.481934C17.0246 0.481934 17.0991 0.502913 17.1737 0.54487C17.2483 0.586828 17.3043 0.649765 17.3416 0.733681L18.5164 3.53087L21.5513 3.7966C21.6446 3.80593 21.7238 3.83623 21.7891 3.88751C21.8544 3.93879 21.8963 4.00173 21.915 4.07632C21.9336 4.15091 21.9359 4.22784 21.922 4.30709C21.908 4.38634 21.8637 4.4586 21.7891 4.52387L19.4954 6.52386L20.1807 9.48888C20.1994 9.58212 20.1924 9.66604 20.1597 9.74063C20.1271 9.81522 20.0781 9.87582 20.0129 9.92245C19.9476 9.96906 19.873 9.99471 19.7891 9.99937C19.7052 10.004 19.6259 9.98305 19.5513 9.93643L16.95 8.37001Z" fill="url(#paint1_linear_212_83)"/>
<path d="M27.9065 8.37001L25.3051 9.93643C25.2305 9.98305 25.1513 10.004 25.0673 9.99937C24.9834 9.99471 24.9088 9.96906 24.8436 9.92245C24.7783 9.87582 24.7294 9.81522 24.6967 9.74063C24.6641 9.66604 24.6571 9.58212 24.6757 9.48888L25.3611 6.52386L23.0674 4.52387C22.9928 4.4586 22.9485 4.38634 22.9345 4.30709C22.9205 4.22784 22.9228 4.15091 22.9415 4.07632C22.9601 4.00173 23.0021 3.93879 23.0674 3.88751C23.1326 3.83623 23.2119 3.80593 23.3051 3.7966L26.3401 3.53087L27.5149 0.733681C27.5522 0.649765 27.6081 0.586828 27.6827 0.54487C27.7573 0.502913 27.8319 0.481934 27.9065 0.481934C27.9811 0.481934 28.0557 0.502913 28.1303 0.54487C28.2049 0.586828 28.2608 0.649765 28.2981 0.733681L29.4729 3.53087L32.5079 3.7966C32.6011 3.80593 32.6804 3.83623 32.7456 3.88751C32.8109 3.93879 32.8529 4.00173 32.8715 4.07632C32.8902 4.15091 32.8925 4.22784 32.8785 4.30709C32.8645 4.38634 32.8202 4.4586 32.7456 4.52387L30.4519 6.52386L31.1372 9.48888C31.1559 9.58212 31.1489 9.66604 31.1163 9.74063C31.0836 9.81522 31.0347 9.87582 30.9694 9.92245C30.9041 9.96906 30.8296 9.99471 30.7456 9.99937C30.6617 10.004 30.5825 9.98305 30.5079 9.93643L27.9065 8.37001Z" fill="url(#paint2_linear_212_83)"/>
<path d="M38.863 8.37001L36.2616 9.93643C36.1871 9.98305 36.1078 10.004 36.0239 9.99937C35.94 9.99471 35.8654 9.96906 35.8001 9.92245C35.7348 9.87582 35.6859 9.81522 35.6533 9.74063C35.6206 9.66604 35.6136 9.58212 35.6323 9.48888L36.3176 6.52386L34.0239 4.52387C33.9493 4.4586 33.905 4.38634 33.891 4.30709C33.877 4.22784 33.8794 4.15091 33.898 4.07632C33.9167 4.00173 33.9586 3.93879 34.0239 3.88751C34.0892 3.83623 34.1684 3.80593 34.2617 3.7966L37.2966 3.53087L38.4714 0.733681C38.5087 0.649765 38.5647 0.586828 38.6393 0.54487C38.7138 0.502913 38.7884 0.481934 38.863 0.481934C38.9376 0.481934 39.0122 0.502913 39.0868 0.54487C39.1614 0.586828 39.2173 0.649765 39.2546 0.733681L40.4295 3.53087L43.4644 3.7966C43.5576 3.80593 43.6369 3.83623 43.7022 3.88751C43.7674 3.93879 43.8094 4.00173 43.828 4.07632C43.8467 4.15091 43.849 4.22784 43.835 4.30709C43.821 4.38634 43.7768 4.4586 43.7022 4.52387L41.4085 6.52386L42.0938 9.48888C42.1124 9.58212 42.1054 9.66604 42.0728 9.74063C42.0402 9.81522 41.9912 9.87582 41.9259 9.92245C41.8607 9.96906 41.7861 9.99471 41.7022 9.99937C41.6183 10.004 41.539 9.98305 41.4644 9.93643L38.863 8.37001Z" fill="url(#paint3_linear_212_83)"/>
<path d="M49.8196 8.37001L47.2182 9.93643C47.1436 9.98305 47.0643 10.004 46.9804 9.99937C46.8965 9.99471 46.8219 9.96906 46.7566 9.92245C46.6914 9.87582 46.6424 9.81522 46.6098 9.74063C46.5772 9.66604 46.5702 9.58212 46.5888 9.48888L47.2741 6.52386L44.9804 4.52387C44.9058 4.4586 44.8616 4.38634 44.8476 4.30709C44.8336 4.22784 44.8359 4.15091 44.8546 4.07632C44.8732 4.00173 44.9152 3.93879 44.9804 3.88751C45.0457 3.83623 45.125 3.80593 45.2182 3.7966L48.2531 3.53087L49.428 0.733681C49.4653 0.649765 49.5212 0.586828 49.5958 0.54487C49.6704 0.502913 49.745 0.481934 49.8196 0.481934C49.8942 0.481934 49.9688 0.502913 50.0433 0.54487C50.1179 0.586828 50.1739 0.649765 50.2112 0.733681L51.386 3.53087L54.4209 3.7966C54.5142 3.80593 54.5934 3.83623 54.6587 3.88751C54.724 3.93879 54.7659 4.00173 54.7846 4.07632C54.8032 4.15091 54.8056 4.22784 54.7916 4.30709C54.7776 4.38634 54.7333 4.4586 54.6587 4.52387L52.365 6.52386L53.0503 9.48888C53.069 9.58212 53.062 9.66604 53.0293 9.74063C52.9967 9.81522 52.9478 9.87582 52.8825 9.92245C52.8172 9.96906 52.7426 9.99471 52.6587 9.99937C52.5748 10.004 52.4955 9.98305 52.421 9.93643L49.8196 8.37001Z" fill="url(#paint4_linear_212_83)"/>
<defs>
<linearGradient id="paint0_linear_212_83" x1="49.8196" y1="0.481934" x2="49.8196" y2="10" gradientUnits="userSpaceOnUse">
<stop stop-color="#FFB321"/>
<stop offset="1" stop-color="#FF9900"/>
</linearGradient>
<linearGradient id="paint1_linear_212_83" x1="49.8196" y1="0.481934" x2="49.8196" y2="10" gradientUnits="userSpaceOnUse">
<stop stop-color="#FFB321"/>
<stop offset="1" stop-color="#FF9900"/>
</linearGradient>
<linearGradient id="paint2_linear_212_83" x1="49.8196" y1="0.481934" x2="49.8196" y2="10" gradientUnits="userSpaceOnUse">
<stop stop-color="#FFB321"/>
<stop offset="1" stop-color="#FF9900"/>
</linearGradient>
<linearGradient id="paint3_linear_212_83" x1="49.8196" y1="0.481934" x2="49.8196" y2="10" gradientUnits="userSpaceOnUse">
<stop stop-color="#FFB321"/>
<stop offset="1" stop-color="#FF9900"/>
</linearGradient>
<linearGradient id="paint4_linear_212_83" x1="49.8196" y1="0.481934" x2="49.8196" y2="10" gradientUnits="userSpaceOnUse">
<stop stop-color="#FFB321"/>
<stop offset="1" stop-color="#FF9900"/>
</linearGradient>
</defs>
</svg>
