<svg width="81" height="80" viewBox="0 0 81 80" fill="none" xmlns="http://www.w3.org/2000/svg">
<rect x="0.0178223" width="80" height="80" rx="40" fill="#8B2F37"/>
<path d="M40 80C62.0914 80 80 62.0914 80 40C80 17.9086 62.0914 0 40 0C17.9086 0 0 17.9086 0 40C0 62.0914 17.9086 80 40 80Z" fill="#EBB9B9"/>
<path fill-rule="evenodd" clip-rule="evenodd" d="M50.5315 33.504V56.2628H56.8482V33.4112C56.8482 32.9619 56.5544 32.6681 56.105 32.6681H51.3674C50.9083 32.6681 50.5315 33.045 50.5315 33.504Z" fill="#7F242C"/>
<path fill-rule="evenodd" clip-rule="evenodd" d="M41.3351 38.0557V56.2628H47.6517V38.4274C47.6517 37.7311 47.3263 37.4055 46.6299 37.4055H42.1711C41.8083 37.4055 41.3351 37.7599 41.3351 38.0557Z" fill="#7F242C"/>
<path fill-rule="evenodd" clip-rule="evenodd" d="M32.0457 43.1648V56.2627H38.3624V42.8861C38.3624 42.4169 37.6745 42.2358 37.1548 42.2358H33.1605C32.5187 42.2358 32.0457 42.5335 32.0457 43.1647V43.1648Z" fill="#7F242C"/>
<path fill-rule="evenodd" clip-rule="evenodd" d="M51.7391 22.7285C51.3956 23.3774 50.9272 23.9339 50.4783 24.5331C49.2027 26.236 47.5803 28.0398 46.0959 29.5328C44.2678 31.3717 41.2642 33.7368 39.1612 35.1388C37.8922 35.9848 36.6592 36.7913 35.2958 37.4972C33.83 38.2562 32.7644 38.8686 31.1435 39.5686C29.6294 40.2227 28.2432 40.7629 26.646 41.2951C25.8309 41.5667 25.087 41.8174 24.2423 42.0497C23.8837 42.1483 23.3435 42.2615 23.1553 42.5446C22.8878 42.9472 23.0813 43.4735 23.4015 43.637C24.1446 44.0159 29.4399 41.9614 30.4273 41.5465C31.1917 41.2253 31.8989 40.9495 32.6352 40.596C35.0836 39.4207 38.4792 37.6057 40.6059 36.0263L42.3835 34.7384C42.7165 34.49 42.9465 34.2905 43.273 34.0486L46.6069 31.1586C48.2001 29.5509 48.9107 28.8644 50.3743 27.1231C50.8751 26.5273 51.3054 25.9987 51.7796 25.3701L53.1323 23.5644C53.36 24.0389 53.3382 25.0233 53.6739 25.3458C54.1145 25.7695 55.0819 25.5115 54.9741 24.6143L54.5622 22.6919C54.1233 20.7876 54.4145 20.4671 51.9992 21.0378L50.0133 21.4672C49.4034 21.6655 49.2162 22.4682 49.7695 22.8441C50.2527 23.1723 51.0236 22.7285 51.739 22.7285H51.7391Z" fill="#7F242C"/>
<path fill-rule="evenodd" clip-rule="evenodd" d="M19.0408 58.4923C19.0408 58.9416 19.3346 59.2353 19.7839 59.2353H59.9136C60.9107 59.2353 60.9107 57.7491 59.9136 57.7491H19.7839C19.3346 57.7491 19.0408 58.0429 19.0408 58.4923Z" fill="#7F242C"/>
<path fill-rule="evenodd" clip-rule="evenodd" d="M22.8493 47.7167V56.2628H29.166V47.8096C29.166 47.3504 28.7891 46.9735 28.3301 46.9735H23.5924C23.1431 46.9735 22.8493 47.2674 22.8493 47.7167Z" fill="#7F242C"/>
<path fill-rule="evenodd" clip-rule="evenodd" d="M32.0416 29.4277C32.0416 30.0401 32.035 30.2352 31.5483 30.7195C31.3047 30.9622 30.9635 31.1163 30.4977 31.1163C30.4977 31.6687 30.6018 32.1296 29.9669 32.1296C29.4332 32.1296 29.5326 31.5031 29.5326 31.1163C28.6351 31.1163 27.9886 31.2762 27.9886 30.5856C27.9886 30.2441 28.2642 30.1074 28.6135 30.1007C28.9946 30.0935 30.5953 30.1779 30.8199 30.0395C31.0748 29.8822 31.1293 29.5203 30.9432 29.2718C30.512 28.6969 29.07 29.4895 28.3244 28.5128C27.5187 27.4573 28.202 26.002 29.5326 26.002C29.5326 25.4496 29.4285 24.9886 30.0633 24.9886C30.597 24.9886 30.4976 25.615 30.4976 26.002C31.3951 26.002 32.0415 25.842 32.0415 26.5327C32.0415 26.862 31.7581 27.0113 31.4166 27.0176C31.036 27.0246 29.4345 26.9406 29.2102 27.0788C28.9552 27.2361 28.9007 27.5981 29.087 27.8465C29.5181 28.4214 30.9601 27.6289 31.7056 28.6055C31.8493 28.7937 32.0415 29.0967 32.0415 29.4276L32.0416 29.4277ZM23.3087 28.5109C23.3087 34.5508 30.5562 37.499 34.7556 33.2995C38.9204 29.1347 36.0601 21.8525 29.967 21.8525C26.3393 21.8525 23.3087 24.8829 23.3087 28.5109Z" fill="#7F242C"/>
</svg>
