<svg width="80" height="80" viewBox="0 0 80 80" fill="none" xmlns="http://www.w3.org/2000/svg">
<path d="M40 80C62.0914 80 80 62.0914 80 40C80 17.9086 62.0914 0 40 0C17.9086 0 0 17.9086 0 40C0 62.0914 17.9086 80 40 80Z" fill="#EBB9B9"/>
<path fill-rule="evenodd" clip-rule="evenodd" d="M49.5871 52.1741H43.1093C41.9308 52.1741 41.5732 50.1013 43.5411 50.1013H49.1552C51.1648 50.1013 50.6036 52.1741 49.5871 52.1741ZM29.5491 51.3104C29.5491 50.5042 29.8658 50.1875 30.672 50.1875C31.2783 50.1875 32.087 51.4173 32.572 51.7422C32.9571 51.6394 33.3472 51.0966 33.6301 50.8137C34.1826 50.2612 36.1415 48.0283 36.8043 48.0283C37.4354 48.0283 37.8407 48.4576 37.8407 49.1511C37.8407 49.7453 36.5757 50.8048 36.0054 51.3751C35.2933 52.0873 34.6442 52.7357 33.9325 53.448C32.4258 54.9559 32.3029 54.3663 30.4345 52.4979C30.1516 52.215 29.5491 51.7876 29.5491 51.3104ZM49.1552 43.7961H43.3683C41.7085 43.7961 41.8833 41.7232 43.1093 41.7232H49.4143C50.0634 41.7232 50.567 42.2008 50.5053 42.8161C50.4322 43.546 49.923 43.7961 49.1552 43.7961ZM32.6584 45.869C31.932 45.869 31.3474 45.033 30.8662 44.5519C30.1403 43.8259 29.5491 43.5391 29.5491 42.5869C29.5491 42.0949 30.0274 41.7231 30.5855 41.7231C31.3261 41.7231 32.1065 42.9946 32.6584 43.3642L34.6193 41.4384C35.0856 40.9656 36.1711 39.6503 36.7178 39.6503C37.4109 39.6503 37.8406 39.8615 37.8406 40.7731C37.8406 41.2937 35.8872 43.0288 35.4439 43.4723C34.9377 43.9783 33.2999 45.869 32.6584 45.869ZM49.4143 35.3318H43.1093C41.8833 35.3318 41.7085 33.2589 43.3683 33.2589H49.1552C51.0772 33.2589 50.7861 35.3318 49.4143 35.3318ZM32.7448 37.4046C31.9209 37.4046 31.7696 36.9909 30.8662 36.0875C29.9628 35.184 29.5491 35.0329 29.5491 34.209C29.5491 33.6038 30.0652 33.3452 30.672 33.3452C31.4526 33.3452 31.9579 34.7128 32.6584 34.8998C33.5919 34.2748 36.0123 31.1859 36.7179 31.1859C37.4614 31.1859 37.8407 31.6026 37.8407 32.3088C37.8407 32.9496 35.9868 34.5514 35.4871 35.0511C34.9822 35.556 33.3845 37.4046 32.7448 37.4046ZM23.1577 21.5989V59.6882C23.1577 60.1929 23.6031 60.6383 24.1078 60.6383H55.8921C56.3968 60.6383 56.8423 60.1929 56.8423 59.6882V21.5125C56.8423 20.7725 56.0534 20.5624 55.2876 20.5624H48.6371C47.5314 20.5624 50.3672 26.9538 44.7504 26.9538H35.2496C33.5552 26.9538 32.5063 26.3289 31.9358 25.1718C31.1613 23.6008 32.0638 20.5624 31.363 20.5624C30.1626 20.5624 24.2353 20.3896 23.6195 20.7649C23.4016 20.8976 23.1577 21.278 23.1577 21.5989Z" fill="#832B33"/>
<path fill-rule="evenodd" clip-rule="evenodd" d="M35.7677 20.5626H33.6948V23.931C33.6948 24.4159 34.2659 24.8811 34.7313 24.8811H45.2685C45.734 24.8811 46.3051 24.4159 46.3051 23.931V20.5626H44.2321C44.2321 18.2879 42.209 16.4168 40.3454 16.4168C38.9449 16.4168 37.9583 16.6349 36.9533 17.6886C36.3447 18.3265 35.7677 19.351 35.7677 20.5626Z" fill="#832B33"/>
</svg>
