<svg width="81" height="80" viewBox="0 0 81 80" fill="none" xmlns="http://www.w3.org/2000/svg">
<rect x="0.0178223" width="80" height="80" rx="40" fill="#8B2F37"/>
<path d="M40 80C62.0914 80 80 62.0914 80 40C80 17.9086 62.0914 0 40 0C17.9086 0 0 17.9086 0 40C0 62.0914 17.9086 80 40 80Z" fill="#EBB9B9"/>
<path fill-rule="evenodd" clip-rule="evenodd" d="M20.1253 20.6736C20.1253 18.6604 20.6462 17.0779 18.6647 17.0779C18.0425 17.0779 17.7657 17.9002 17.7657 18.4263V23.8196C17.7657 24.4762 18.3451 25.0557 19.0016 25.0557H24.6198C25.7965 25.0557 26.242 23.4679 25.2976 22.9172C24.5837 22.5009 22.5871 22.696 21.4736 22.696C21.7257 22.3196 22.2537 21.8093 22.6446 21.5074L25.311 19.3421C30.976 15.1589 39.2815 13.4198 46.3716 15.4389C47.0435 15.6303 47.5314 15.7838 48.1739 15.9963C48.7729 16.1946 49.4359 16.4103 49.977 16.6652C52.1913 17.7088 54.1189 18.7779 55.995 20.3105C56.854 21.0121 57.8247 21.7486 58.5061 22.631L60.1534 24.5793C63.0495 28.0893 64.8004 33.1471 65.2792 37.6564L65.4076 39.9999C65.4076 41.8721 65.1433 43.8803 64.7336 45.6183C64.1582 48.0591 63.2562 50.3385 62.0753 52.511C61.8501 52.9253 61.6892 53.1399 61.4802 53.4889C60.9003 54.4573 60.1913 55.3405 59.5014 56.2293C58.0484 58.1013 55.5889 60.2347 53.5736 61.4255C53.1881 61.6532 52.9755 61.8206 52.5983 62.0233C51.8318 62.4352 51.3147 62.7338 50.4308 63.1145C49.9956 63.302 49.7719 63.4236 49.3267 63.5834C48.1811 63.9945 46.9474 64.4658 45.7361 64.712C44.8344 64.8953 44.019 65.0613 43.0473 65.1694L40.0134 65.4017C38.6321 65.4017 35.6103 65.0071 34.395 64.7199C33.4795 64.5036 32.7865 64.3132 31.9373 64.0314C28.2667 62.8132 24.7877 60.6782 22.0613 57.9519C19.7767 55.6672 17.5178 52.3442 16.4299 49.3131C16.2807 48.8972 16.1632 48.6237 16.0098 48.1601C14.8821 44.7523 14.2318 40.8743 14.7969 37.2552C14.8725 36.7706 14.9111 36.313 14.7219 35.9646C14.2224 35.0453 12.7751 35.1297 12.5421 36.6867C11.935 40.7434 12.6074 45.6107 13.9573 49.3138C15.2329 52.813 17.1297 55.9597 19.6489 58.6788C20.4359 59.5285 21.2155 60.4063 22.1465 61.1251C23.4234 62.111 24.625 63.0167 26.0312 63.87C26.4272 64.1102 26.7346 64.2431 27.1133 64.4734C30.0931 66.2856 35.516 67.6412 39.0021 67.6412C43.0992 67.6412 45.579 67.3063 49.3265 66.0551C52.5062 64.9935 55.2168 63.2022 57.8146 61.1721C58.9821 60.2599 60.2356 59.0373 61.1378 57.866C61.3944 57.5329 61.6132 57.3099 61.8925 56.935C63.0688 55.3553 64.3048 53.631 65.0545 51.7822C65.375 50.9922 65.7138 50.3391 66.0127 49.4819C68.246 43.0728 68.2124 37.1081 66.0685 30.6867C65.789 29.8496 65.3977 29.0653 65.0861 28.2982C64.4735 26.7906 63.5858 25.4081 62.6459 24.1089C60.2462 20.792 57.5073 18.2549 53.9954 16.1297C50.2292 13.8507 45.5116 12.3584 41.0246 12.3584C35.8202 12.3584 32.2967 12.9904 28.0639 15.0162L25.8909 16.2143C24.4714 17.0654 23.2169 17.9635 21.956 19.021C21.3769 19.5068 20.7571 20.2501 20.125 20.6733L20.1253 20.6736Z" fill="#7F242C"/>
<path fill-rule="evenodd" clip-rule="evenodd" d="M45.5876 42.7857C45.5876 44.5296 45.5688 45.0848 44.1832 46.4639C43.4894 47.1545 42.5184 47.5935 41.1918 47.5935C41.1918 49.1661 41.4884 50.4782 39.6808 50.4782C38.1615 50.4782 38.4445 48.6949 38.4445 47.5935C35.8894 47.5935 34.0488 48.0486 34.0488 46.0824C34.0488 45.1101 34.8334 44.721 35.8278 44.702C36.9128 44.6814 41.4701 44.9216 42.1096 44.5276C42.8357 44.08 42.9907 43.0492 42.4605 42.3421C41.2331 40.7054 37.1275 42.9616 35.0051 40.181C32.711 37.1758 34.6564 33.0326 38.4445 33.0326C38.4445 31.4599 38.148 30.1478 39.9556 30.1478C41.4749 30.1478 41.1918 31.9312 41.1918 33.0326C43.747 33.0326 45.5876 32.5774 45.5876 34.5436C45.5876 35.481 44.7808 35.9062 43.8086 35.9241C42.7249 35.944 38.1654 35.7049 37.5268 36.0985C36.8007 36.546 36.6456 37.5768 37.1759 38.2839C38.4033 39.9207 42.5089 37.6645 44.6314 40.445C45.0407 40.9812 45.5876 41.8436 45.5876 42.7856V42.7857ZM20.7243 40.1758C20.7243 57.3718 41.3586 65.7652 53.3145 53.8094C65.1722 41.9518 57.0287 21.2191 39.6808 21.2191C29.3525 21.2191 20.7243 29.8468 20.7243 40.1758Z" fill="#7F242C"/>
</svg>
