<svg width="81" height="80" viewBox="0 0 81 80" fill="none" xmlns="http://www.w3.org/2000/svg">
<rect x="0.0178223" width="80" height="80" rx="40" fill="#8B2F37"/>
<path d="M40 80C62.0914 80 80 62.0914 80 40C80 17.9086 62.0914 0 40 0C17.9086 0 0 17.9086 0 40C0 62.0914 17.9086 80 40 80Z" fill="#EBB9B9"/>
<path fill-rule="evenodd" clip-rule="evenodd" d="M54.0944 47.9691C54.1445 48.5712 54.7788 49.9945 53.4255 51.2836C53.0416 51.6493 50.6217 53.0373 49.988 53.4043L44.8121 56.473C41.4296 58.5918 38.6975 57.7378 35.2707 56.8807C34.5223 56.6935 33.8585 56.552 33.103 56.3619L30.8428 55.8432C30.8428 55.3302 31.0185 54.8916 31.1206 54.4537C31.6828 54.4662 32.703 54.816 33.3055 54.9552L37.7186 56.0077C39.9786 56.4685 40.7542 56.6676 43.0837 55.7637C43.6003 55.5631 44.9932 54.6908 45.5095 54.3914L50.975 51.1492C51.7678 50.6895 52.89 50.2715 52.89 49.1735C52.89 48.422 52.2808 47.8059 51.8475 47.437C51.4287 47.0803 50.476 46.6725 49.7403 46.6725C48.889 46.6725 48.0075 47.1679 47.3925 47.4743C47.1614 47.5896 47.1247 47.6242 46.9243 47.7471L43.7798 49.327C43.0946 49.6684 42.0256 50.4704 40.9399 50.4704C39.9292 50.4704 39.3092 49.9787 38.6238 49.6367L34.3262 47.4497C32.1833 46.6106 29.7264 46.8788 27.6628 47.7542C27.2928 47.9111 27.0871 48.0776 26.7663 48.2474C26.7663 48.6723 26.9088 49.2612 27.006 49.6752L28.7499 57.936C28.8426 58.3991 28.9897 58.8908 28.9897 59.3639C30.334 59.3639 30.1009 58.7954 32.7806 59.0931C34.1391 59.2441 35.5393 59.4785 36.864 59.549C37.2266 59.5683 37.8641 59.6671 38.1804 59.7147L42.9778 60.1049C45.1867 60.1049 46.7699 58.7117 48.3318 57.6776C49.9328 56.6175 51.4591 55.5931 53.0566 54.5282C53.8541 53.9964 54.6086 53.4912 55.391 52.972C56.4404 52.2755 61.4119 49.0591 61.7313 48.5662C62.6308 47.1777 60.9516 45.6536 59.7451 45.6536C58.123 45.6536 58.0949 45.9685 56.5642 46.7341C55.7157 47.1585 54.9045 47.541 54.0942 47.9696L54.0944 47.9691Z" fill="#7F242C"/>
<path fill-rule="evenodd" clip-rule="evenodd" d="M21.6717 48.8028C22.2809 48.8028 22.3907 48.6175 23.0612 48.6175C23.0688 48.9513 23.3512 49.8421 23.2605 49.9389C23.1558 50.0503 22.1534 50.1923 21.8571 50.1923C21.8571 49.6339 21.6717 49.361 21.6717 48.8028ZM18.9852 47.0428C18.9852 47.561 19.964 51.8805 20.0899 52.5153L22.2136 62.7123C22.3355 63.3115 22.4459 63.0525 23.9492 62.7528L28.0634 61.8647C28.0634 61.3781 25.418 48.8136 24.9682 46.896C24.6356 45.4783 25.6137 45.7053 20.3953 46.7859C19.9896 46.8699 19.5067 47.0429 18.9849 47.0429L18.9852 47.0428Z" fill="#7F242C"/>
<path fill-rule="evenodd" clip-rule="evenodd" d="M51.5932 45.2826H55.2986V33.4251H51.5932V45.2826Z" fill="#7F242C"/>
<path fill-rule="evenodd" clip-rule="evenodd" d="M38.2535 45.2826H41.9589V34.9073H38.2535V45.2826Z" fill="#7F242C"/>
<path fill-rule="evenodd" clip-rule="evenodd" d="M44.9233 45.2826H48.6288V37.8716H44.9233V45.2826Z" fill="#7F242C"/>
<path fill-rule="evenodd" clip-rule="evenodd" d="M31.5836 45.2826H35.2892V39.3538H31.5836V45.2826Z" fill="#7F242C"/>
<path fill-rule="evenodd" clip-rule="evenodd" d="M54.2835 18.6664C54.2835 20.0843 55.7756 19.74 57.5934 19.74L51.7115 25.6661C50.5013 25.3648 49.3473 25.1799 48.266 26.4251C47.68 27.1 47.9873 27.3435 47.5744 27.3435H36.2136C35.9405 27.3435 35.8767 27.0174 35.7145 26.7693C35.6025 26.5978 35.6052 26.6025 35.4856 26.4615C35.3058 26.2494 35.3855 26.3398 35.1697 26.1512C33.974 25.1052 32.1124 25.2829 31.1803 26.3358C30.4156 27.1996 30.1467 28.4053 30.6674 29.4906L27.3358 32.4209C27.1586 32.5775 27.0685 32.7089 26.8839 32.8634L23.0638 36.1996C22.0361 35.6558 20.5359 35.9292 19.7297 36.8014C18.2027 38.4533 18.9507 41.6562 21.9904 41.6562C23.4186 41.6562 24.4771 40.5223 24.7195 39.1003C24.8116 38.5605 24.5987 38.0747 24.4952 37.6308L26.0368 36.2205C26.2592 35.9979 26.3538 35.9685 26.5742 35.7739C26.7702 35.6007 26.8721 35.4544 27.076 35.2917L30.2069 32.5186C30.4538 32.3215 30.5004 32.2881 30.7335 32.0612L31.7744 31.1298C32.0361 30.927 32.1179 30.9147 32.4427 31.0131C34.2614 31.5629 35.6834 30.4348 35.9451 29.3117H47.7531C49.1983 32.0429 51.8981 31.3659 52.8374 29.9233C53.5292 28.8608 53.4123 28.3284 53.1203 27.0754L59.0022 21.1491C59.0619 23.0564 58.6732 24.4812 60.0978 24.4812C60.6574 24.4812 60.9924 23.9851 60.9924 23.4078V18.7561C60.9924 18.2457 60.6177 17.772 59.919 17.772H55.3568C54.7793 17.772 54.2834 18.1068 54.2834 18.6666L54.2835 18.6664Z" fill="#7F242C"/>
</svg>
