<svg width="231" height="75" viewBox="0 0 231 75" fill="none" xmlns="http://www.w3.org/2000/svg">
<path fill-rule="evenodd" clip-rule="evenodd" d="M86.182 35.8697L86.2281 37.5191C86.0295 37.4109 85.7612 37.1274 85.6117 36.9357L86.182 35.8697ZM87.0662 32.6201C87.078 32.9276 87.0538 33.2372 87.0414 33.5367C87.0293 33.8319 87.0742 34.1737 86.9045 34.3434C86.8061 34.1426 86.7716 33.0803 86.7878 32.7664L87.0662 32.6201ZM84.9013 32.4135L85.1008 32.6201C84.9944 32.8693 84.5233 33.4271 84.3312 33.6874C84.0691 34.0424 83.7949 34.3806 83.5405 34.7136L84.9013 32.4135ZM85.4158 29.8748C85.4128 30.3455 85.4069 30.7706 85.4802 31.2252C85.5443 31.6224 85.6947 32.0055 85.7429 32.3341C85.1226 32.0972 84.9128 30.8315 84.9861 29.9466L85.4161 29.8748H85.4158ZM87.5665 31.2583C87.5027 30.9672 87.557 30.9951 87.8035 30.9233L89.0603 30.541C88.5396 30.8623 88.2819 31.0646 87.5665 31.258V31.2583ZM76.0351 28.1448C77.5924 28.8046 78.1427 29.1405 79.9471 29.8015C80.6389 30.0551 81.3593 30.2784 82.0913 30.483C82.4412 30.5809 84.1442 30.9453 84.2789 31.0502C83.7736 31.4395 84.0165 31.4459 83.2588 31.2184C81.1575 30.5874 78.7532 29.8516 76.8667 28.751C76.5715 28.5786 76.2236 28.3283 75.9716 28.2028C75.8418 28.1545 75.7343 28.1043 75.6371 27.9299C75.8915 28.0182 75.8871 27.9672 76.0351 28.1445V28.1448ZM77.0268 19.0279C77.1607 19.4043 77.9219 19.9615 78.3147 20.1722C78.8611 20.4653 79.5348 20.6453 80.2603 20.7069C83.9598 21.0208 85.6486 18.9385 87.8324 18.3575C89.0541 18.0325 90.8008 18.1696 91.7391 19.0481C90.8354 19.0296 90.6773 18.85 89.4524 19.0566C86.3901 19.5731 83.4438 22.1511 79.6882 21.2565C79.0044 21.0935 78.3747 20.7884 77.9994 20.4363C77.6217 20.0817 77.2027 19.608 77.0262 19.0282L77.0268 19.0279ZM99.9584 18.7969C99.779 19.1504 99.1753 19.6959 98.7905 19.9374C97.5908 20.691 96.3047 20.5803 95.0204 20.1324C94.6726 20.011 93.6871 19.6226 93.495 19.3773C93.7698 19.2882 94.0934 19.1912 94.3668 19.1041C94.7695 18.9757 94.8233 18.8717 95.1451 19.0897C96.8603 20.252 98.5736 20.0934 99.8901 18.7354C99.9667 18.585 100.033 18.5305 100.244 18.388C100.215 18.4704 100.192 18.5442 100.14 18.6237L99.9587 18.7972L99.9584 18.7969ZM75.2097 12.0842C75.2594 12.0499 86.8632 9.16852 87.7408 9.05097C87.7137 9.4332 87.6528 10.307 87.5745 10.6532C87.5089 10.9422 86.9001 11.1163 86.9208 11.6521C87.2781 11.7389 87.4663 11.6609 87.5978 11.9763C87.5213 12.3374 87.1442 12.3424 86.7222 12.3333C86.7169 12.8132 86.7216 13.145 86.8771 13.5703C86.9439 13.7535 87.0092 13.8898 87.1155 14.0366C87.3073 14.3013 87.3313 14.1835 87.4007 14.4083C87.0668 14.5666 85.2057 15.3105 85.1191 15.5116C84.9973 15.7948 85.2024 16.0032 85.4707 15.9613L91.8602 13.2147C93.4205 12.576 95.0692 11.9836 96.7828 11.4548C98.4678 10.9349 100.76 10.3011 101.935 11.7037C102.553 12.4406 102.098 13.4967 101.675 14.1533C100.466 16.0337 97.8038 17.2642 95.6141 18.0738C94.8901 18.3414 92.2663 19.4811 91.8806 18.167C91.7267 17.642 92.1159 17.2768 92.354 17.0608C92.6321 16.8087 93.3588 16.573 93.4536 16.4757C93.6147 16.3104 93.5423 16.0211 93.3218 15.9648C93.0237 15.8886 91.2506 16.4942 91.2364 18.0207C91.0399 18.0017 90.5411 17.7675 90.2364 17.6901C87.9811 17.1179 86.7021 18.2136 85.1962 18.9326C83.1087 19.9292 81.1371 20.4935 78.828 19.732C76.2833 18.8928 78.005 16.7615 77.7609 16.3599C77.3194 15.6843 76.6013 17.2557 76.4441 17.647C76.0927 18.5214 76.1344 19.1909 76.3812 20.0825C76.2065 20.2388 75.908 20.2772 75.6967 20.4164C74.9872 20.8833 74.7384 22.0458 74.89 22.497C74.9828 22.7731 75.411 22.8044 75.4766 22.4058C75.5292 22.0848 75.4911 21.887 75.5963 21.5628C75.7514 21.0847 76.1424 20.7212 76.7231 20.7488C77.5298 21.7774 78.518 22.3372 79.7343 22.9293C83.1303 24.5822 87.0629 24.0616 90.3363 22.46L92.0331 21.6138L91.6342 23.9711C87.456 25.0477 83.5109 24.6804 79.5942 23.1283L77.1583 22.0309C76.7322 21.8732 76.6152 22.1865 76.6436 22.5697C76.9125 26.2184 82.2118 27.8631 85.7429 26.2829C86.3197 26.0247 86.771 25.6946 87.1386 25.3391C87.375 25.1107 87.7148 25.1863 88.1599 25.1582C88.5047 25.1362 88.8505 25.0843 89.1826 25.0773C89.1797 25.3827 88.3115 28.1618 88.1155 28.855C88.039 29.1262 88.0573 29.2926 87.8363 29.3873C86.7822 29.8387 86.6584 29.3445 85.9211 29.2812C85.0544 29.2065 84.7973 29.5005 84.5106 29.4972C84.2846 29.4946 82.4444 28.7899 82.0824 28.6563C79.5458 27.7206 76.6131 26.4051 74.3247 25.0067C73.9852 24.7991 73.6811 24.5807 73.3445 24.4058L73.6512 18.4874C76.3105 17.1634 75.2949 16.2207 74.8291 16.7975C74.541 17.1543 74.5159 17.263 74.1409 17.5204C72.554 18.6105 71.1205 17.4919 70.6914 16.017C69.7756 12.8689 73.0138 10.3598 74.7192 12.5066C74.838 12.6561 74.9063 12.8293 75.0954 12.8568C75.328 12.8908 75.4698 12.7437 75.4491 12.5283C75.4305 12.3339 75.2884 12.2357 75.2095 12.0845L75.2097 12.0842ZM76.1382 4.44841C76.3374 4.56214 76.8161 4.71661 76.864 4.92825C76.2526 4.70254 75.6533 4.39125 75.1784 4.05094C74.9488 3.8865 73.9216 3.02883 74.0646 2.69438C74.2127 2.75769 74.5543 3.23607 74.6799 3.35771C74.9379 3.60745 75.0842 3.72997 75.3522 3.93222C75.601 4.12011 75.8543 4.28602 76.1382 4.44812V4.44841ZM71.236 10.0713C71.2245 9.27052 75.4733 7.02991 76.0537 6.71569C76.5277 6.45921 76.9323 6.26223 77.4154 6.01337C77.9222 5.7522 77.8965 5.8419 77.9855 5.55523C78.2367 4.74475 79.0667 2.38543 79.6631 2.14097C79.8043 2.36902 78.9937 4.93294 78.872 5.35679C78.4991 6.65531 78.9429 6.01865 76.6046 7.20813C75.6648 7.68621 74.8022 8.16048 73.9686 8.70011C73.4979 9.00495 71.9172 10.11 71.236 10.071V10.0713ZM77.3218 3.93135C76.3513 3.79592 76.1737 2.44083 76.0676 1.43836C75.9893 0.698235 75.9488 0.427979 75.0989 0.690321C74.0809 1.00455 73.5446 1.60896 73.4027 2.68852C73.3551 3.04993 73.4532 3.18711 73.624 3.37881C74.7907 4.69082 74.9063 4.60787 76.3185 5.29435C75.3817 5.88088 74.4506 6.34343 73.5472 6.93055C72.3418 7.71347 70.7082 8.78306 69.6734 9.73512C68.6521 10.6746 67.5061 11.2558 68.9225 12.1501C69.6618 12.6171 70.1302 12.6162 70.455 12.7865C70.3891 13.0418 70.2168 13.3255 70.1249 13.6401C69.8338 14.6343 69.8595 15.6907 70.2473 16.6193C70.7017 17.7083 71.5315 18.5252 73.0112 18.5607C73.0259 19.2158 72.7818 24.416 72.6613 24.6444C72.1967 25.5228 71.9228 25.8168 71.8776 27.106C71.8341 28.3485 71.9393 28.2685 73.3034 28.8843C75.7242 29.9777 77.8005 30.7313 80.3643 31.4928L82.8596 32.1872C82.3227 33.0733 78.9116 34.3994 80.1025 36.7754C80.5121 37.5926 81.0605 38.4547 81.5147 39.2652C82.9849 41.8868 82.95 42.1363 83.7405 40.6129C84.0298 40.0557 85.1454 37.7477 85.3259 37.5929C85.7603 37.9863 86.6764 39.1731 87.0139 39.1081C87.2668 39.0594 88.8605 36.4292 89.1102 36.052C89.6067 35.3025 89.3115 34.8552 89.0331 34.0749C88.8788 33.642 88.4397 32.5712 88.3939 32.1869C89.0582 31.8601 89.5736 31.6487 89.7234 30.8817C89.8762 30.099 89.432 29.3507 89.1034 28.923C88.7796 28.5015 88.8546 28.6164 89.0219 28.0243C89.117 27.6878 89.2101 27.3607 89.3082 27.0107C90.0198 24.4749 89.5198 25.0887 91.0768 24.7206C91.4208 24.6391 91.888 24.5385 92.2089 24.4087L92.7134 21.4681C92.8079 21.4664 93.8139 21.9172 94.0724 21.9987C94.5819 22.1593 95.1717 22.2757 95.7799 22.2745C97.7568 22.2698 99.6523 20.8027 100.583 19.2275C101.894 17.0109 101.459 15.5005 100.657 16.816C100.244 17.4928 99.7037 18.1969 99.105 18.68C97.7365 19.7841 96.8623 19.3157 95.7663 18.7483C95.849 18.6377 95.7616 18.6967 95.9268 18.607C95.9531 18.5926 96.0919 18.5475 96.125 18.536L97.2533 18.0817C98.6859 17.462 100.081 16.6944 101.136 15.7238C102.741 14.2471 103.916 11.6536 101.406 10.552C99.3754 9.66125 96.4572 10.866 94.6044 11.507C93.5532 11.8708 92.5777 12.2486 91.5636 12.6505L88.6516 13.8543C88.7943 13.2036 88.9944 12.9879 88.8821 12.1733C88.7858 11.4739 88.5564 11.1664 88.1953 10.8399C88.1726 10.4931 88.3091 9.11839 88.4155 8.88038C88.6877 8.58286 90.7092 8.57964 91.3697 7.92158C92.1011 7.1926 91.6528 5.99139 90.2027 5.86887C90.297 5.46934 90.5039 5.22869 90.5813 4.70254C90.6463 4.2611 90.6017 3.81879 90.4678 3.41194C89.8301 1.47236 87.104 0.323921 85.0195 0.0607C83.4976 -0.131587 81.2396 0.137497 79.9601 0.704098C78.6604 1.27949 77.8959 3.32752 77.3223 3.93017L77.3218 3.93135Z" fill="#842C34"/>
<path fill-rule="evenodd" clip-rule="evenodd" d="M139.649 15.7273C138.394 16.0333 137.466 17.7308 136.984 18.988C136.48 20.3014 136.157 23.2297 138.265 22.8032C139.896 22.4732 140.24 20.4454 140.612 19.2354L141.295 16.9848C141.402 16.49 140.766 15.4547 139.649 15.727V15.7273Z" fill="#842C34"/>
<path fill-rule="evenodd" clip-rule="evenodd" d="M116.851 13.6564C117.312 13.8244 119.261 14.5279 119.737 14.4485C119.818 14.0955 119.818 13.3232 119.871 12.9184C119.935 12.4277 120.003 11.9396 120.109 11.4633C120.569 9.39976 121.472 7.38691 122.77 5.74485C122.942 5.52765 123.471 4.94405 123.541 4.7884C123.094 4.28922 122.747 4.68552 122.289 4.99769C120.469 6.23817 118.953 8.74435 118.02 10.7622C117.79 11.2593 116.918 13.1388 116.851 13.6567V13.6564Z" fill="#842C34"/>
<path fill-rule="evenodd" clip-rule="evenodd" d="M81.2618 11.9522C82.8413 12.1096 82.5218 13.0922 81.0035 13.03C80.9444 14.2664 81.2878 15.4421 82.039 15.8847C83.8079 16.927 84.9226 12.7999 83.45 11.1895C83.1587 10.8709 82.677 10.5186 82.0715 10.8498C81.7804 11.009 81.3032 11.521 81.2618 11.9522Z" fill="#842C34"/>
<path fill-rule="evenodd" clip-rule="evenodd" d="M121.083 31.4593C120.451 31.6349 119.685 32.8651 119.409 33.6519C119.2 34.2472 118.562 36.6886 119.977 36.209C121.053 35.8444 121.26 34.7185 121.481 33.8696C121.605 33.3904 121.737 32.8745 121.877 32.3733C122.099 31.581 121.451 31.3573 121.083 31.459V31.4593Z" fill="#842C34"/>
<path fill-rule="evenodd" clip-rule="evenodd" d="M143.628 33.479C144.64 33.561 144.919 33.843 145.609 34.2033C145.673 33.5912 145.631 33.0217 145.675 32.412C145.728 31.6628 145.946 31.4901 146.096 30.9449C144.863 31.19 143.699 32.8593 143.628 33.479Z" fill="#842C34"/>
<path fill-rule="evenodd" clip-rule="evenodd" d="M139.029 32.7732C140.331 32.6346 141.624 30.9535 140.996 30.3271C140.355 29.689 139.006 30.8304 139.029 32.7732Z" fill="#842C34"/>
<path fill-rule="evenodd" clip-rule="evenodd" d="M145.275 34.9587C145.22 34.8016 145.221 34.8154 145.07 34.7131C143.157 33.4163 142.012 35.1144 143.979 35.3527C144.595 35.4274 144.996 35.2457 145.274 34.9587H145.275Z" fill="#842C34"/>
<path fill-rule="evenodd" clip-rule="evenodd" d="M96.9389 33.1044C96.2385 33.4049 95.573 35.3128 96.4669 35.0443C96.8502 34.9291 96.9563 34.4405 97.0899 34.0354C97.18 33.7619 97.5739 32.8318 96.9386 33.1044H96.9389Z" fill="#842C34"/>
<path fill-rule="evenodd" clip-rule="evenodd" d="M100.462 34.5104C100.757 34.1511 100.623 33.3377 100.087 33.3916C99.7554 33.836 100.093 34.3636 100.462 34.5104Z" fill="#842C34"/>
<path fill-rule="evenodd" clip-rule="evenodd" d="M97.7625 34.0603C98.0656 34.0181 98.4924 33.399 98.6552 33.0449C98.8301 32.6641 99.063 31.72 98.6112 31.5503C98.3204 31.713 98.2796 32.4153 98.1729 32.7826C98.0532 33.1944 97.9105 33.6833 97.7625 34.0603Z" fill="#842C34"/>
<path fill-rule="evenodd" clip-rule="evenodd" d="M100.301 34.8358C100.143 34.6793 99.9773 34.5611 99.8585 34.3524C99.7562 34.1733 99.703 33.8881 99.6076 33.7284C98.8298 34.885 99.8951 35.658 100.301 34.8355V34.8358Z" fill="#842C34"/>
<path d="M66.1145 72.4868C65.8828 74.0043 65.2815 74.5758 63.941 74.5729C62.707 74.5433 61.9836 73.5526 61.9836 72.0052C61.9836 70.4859 62.6695 69.4779 64.0365 69.4779C64.9668 69.4779 65.665 69.871 65.983 71.0156H66.0551V69.5353C65.5619 69.2976 64.7992 69.1112 63.9396 69.1112C61.8193 69.1112 60.5524 70.1969 60.5524 72.0236C60.5524 73.8706 61.8491 74.9346 63.9396 74.944C65.1627 74.944 65.9316 74.4826 66.298 73.8923L66.1884 72.4865H66.1148L66.1145 72.4868Z" fill="#842C34"/>
<path d="M70.4429 69.1129C68.4556 69.1129 67.1213 70.2265 67.1213 72.03C67.1213 73.8272 68.4556 74.9439 70.4429 74.9439C72.4379 74.9439 73.7706 73.8272 73.7706 72.03C73.7706 70.2268 72.4379 69.1129 70.4429 69.1129ZM70.4429 74.5758C69.3046 74.5758 68.5605 73.6018 68.5605 72.03C68.5605 70.4519 69.3043 69.4778 70.4429 69.4778C71.5877 69.4778 72.3253 70.4519 72.3253 72.03C72.3253 73.602 71.5877 74.5758 70.4429 74.5758Z" fill="#842C34"/>
<path d="M80.7437 69.113H80.6607L78.1707 73.0504L75.5165 69.113H75.4382L74.71 74.2264C74.6616 74.5512 74.3968 74.7297 74.0915 74.7297H73.963V74.8229H75.7514V74.7312H75.6199C75.3646 74.7312 75.2815 74.4935 75.2957 74.3598L75.6184 71.7346L77.7857 74.9997H77.8687C77.8764 74.5802 78.2086 74.052 78.2086 74.052L79.7071 71.691L80.075 74.3595C80.0892 74.4961 80.0233 74.7309 79.7494 74.7309H79.6179V74.8226H82.2331V74.7294H82.1001C81.8167 74.7294 81.5676 74.5665 81.4988 74.2681L80.744 69.1127L80.7437 69.113Z" fill="#842C34"/>
<path d="M84.8809 69.2311V69.3243H85C85.2695 69.3243 85.4885 69.5295 85.4932 69.8088V74.2434C85.487 74.5216 85.263 74.7297 84.9938 74.7297H84.8809V74.8229H87.4678V74.7297H87.3661C87.1155 74.7297 86.8555 74.5448 86.8555 74.2358V69.6162C86.9619 69.6195 87.1498 69.6083 87.3927 69.6195C87.7184 69.635 88.3496 69.7669 88.3904 70.6867C88.3983 70.8699 88.3762 71.0036 88.359 71.0766C88.2024 71.8595 87.7719 72.004 87.3836 72.0087H87.1424V72.0878C87.3162 72.1019 87.5479 72.2681 87.7063 72.6579C87.7923 72.9716 88.1274 73.5977 88.3357 73.9301C88.7819 74.6274 89.2627 74.8232 90.2837 74.8232H91.0712V74.73C90.6829 74.7285 90.4713 74.5902 90.1049 74.0948C89.7745 73.6598 89.5021 73.1984 89.4223 73.0572C89.2467 72.7699 88.8883 72.3768 88.5157 72.2634C89.4412 72.1315 89.82 71.4136 89.82 70.7582C89.82 69.5963 88.81 69.2314 87.7686 69.2314H84.8809V69.2311Z" fill="#842C34"/>
<path d="M95.7755 73.1097H95.6847C95.4389 73.9345 94.8939 74.4408 94.0999 74.4487H92.9693V72.2382H94.0497C94.4835 72.2506 94.7545 72.5613 94.7545 72.9746V73.0399H94.8517V71.0672H94.7545V71.1279C94.7545 71.5456 94.4788 71.8563 94.0373 71.8642H92.9693V69.6057H94.3221C94.8656 69.6136 95.1756 69.9507 95.1756 70.488V70.5733H95.2743V69.0869C95.1256 69.1458 94.651 69.2282 94.297 69.23H90.9911V69.3232H91.1037C91.3824 69.3232 91.6079 69.5313 91.6126 69.8109V74.2426C91.6064 74.519 91.3809 74.7289 91.1037 74.7289H90.9911V74.8221H95.3883H95.4102L95.7752 73.1103L95.7755 73.1097Z" fill="#842C34"/>
<path d="M101.95 72.4868C101.718 74.0043 101.117 74.5758 99.7766 74.5729C98.5426 74.5433 97.8192 73.5526 97.8192 72.0052C97.8192 70.4859 98.5051 69.4779 99.8721 69.4779C100.802 69.4779 101.501 69.871 101.819 71.0156H101.891V69.5353C101.398 69.2976 100.635 69.1112 99.7752 69.1112C97.6549 69.1112 96.388 70.1969 96.388 72.0236C96.388 73.8706 97.6847 74.9346 99.7752 74.944C100.998 74.944 101.767 74.4826 102.134 73.8923L102.024 72.4865H101.95L101.95 72.4868Z" fill="#842C34"/>
<path d="M107.586 73.1097H107.495C107.249 73.9345 106.705 74.4408 105.911 74.4487H104.78V72.2382H105.86C106.294 72.2506 106.565 72.5613 106.565 72.9746V73.0399H106.662V71.0672H106.565V71.1279C106.565 71.5456 106.289 71.8563 105.848 71.8642H104.78V69.6057H106.133C106.676 69.6136 106.986 69.9507 106.986 70.488V70.5733H107.085V69.0869C106.936 69.1458 106.462 69.2282 106.108 69.23H102.802V69.3232H102.914C103.193 69.3232 103.418 69.5313 103.423 69.8109V74.2426C103.417 74.519 103.192 74.7289 102.914 74.7289H102.802V74.8221H107.199H107.221L107.586 73.1103L107.586 73.1097Z" fill="#842C34"/>
<path d="M110.723 74.8229V74.7297H110.612C110.312 74.7297 110.073 74.5169 110.063 74.2373V69.812C110.074 69.5339 110.314 69.3243 110.61 69.3243H110.719V69.2311H108.054V69.3243H108.167C108.46 69.3243 108.705 69.5371 108.709 69.8182V74.2343C108.705 74.5154 108.46 74.7297 108.167 74.7297H108.056V74.8229H110.722H110.723Z" fill="#842C34"/>
<path d="M116.576 69.0789C116.455 69.1378 115.94 69.2217 115.588 69.2217H112.121C111.77 69.2217 111.289 69.1378 111.135 69.0789V70.5577H111.23V70.4706C111.23 69.9395 111.541 69.6024 112.09 69.5945H113.176V74.2358C113.167 74.5169 112.94 74.7297 112.657 74.7297H112.558V74.8229H115.154V74.7297H115.054C114.774 74.7297 114.542 74.5201 114.536 74.2434V69.5942H115.621C116.171 69.6021 116.485 69.9389 116.481 70.4703V70.5574H116.578L116.576 69.0786L116.576 69.0789Z" fill="#842C34"/>
<path d="M119.089 68.9734H119.01C118.982 69.2375 118.637 69.9597 118.571 70.1042L116.634 74.2437C116.455 74.5931 116.153 74.73 115.915 74.73H115.84V74.8232H117.716V74.7314H117.643C117.43 74.7314 117.189 74.5529 117.317 74.2249L117.693 73.3614H119.682L120.047 74.2126C120.188 74.5482 119.943 74.7314 119.727 74.7314H119.654V74.8232H122.414V74.73H122.344C122.087 74.73 121.788 74.584 121.607 74.2097L119.09 68.9734H119.089ZM117.851 72.9932L118.693 71.0516L119.525 72.9932H117.851Z" fill="#842C34"/>
<path d="M124.431 70.9505C124.079 70.7347 123.795 70.5559 123.822 70.2095C123.846 69.7853 124.248 69.484 124.851 69.484C125.598 69.484 126.019 69.8536 126.019 70.4191H126.099L126.23 69.1967H125.72C125.33 69.1487 124.813 69.1129 124.498 69.1129C123.542 69.1129 122.884 69.635 122.804 70.5234C122.734 71.1618 123.034 71.6713 123.636 72.0488L124.973 72.8877C125.454 73.1905 125.675 73.4051 125.675 73.7266C125.675 74.1833 125.321 74.567 124.588 74.5731C123.584 74.5764 122.981 73.8711 123.034 73.0275H122.961C122.735 73.3801 122.605 74.0916 122.751 74.4471C123.02 74.7361 123.673 74.9442 124.483 74.9442C125.789 74.9442 126.633 74.309 126.691 73.2559C126.733 72.5911 126.396 72.1485 125.917 71.8562L124.431 70.9505Z" fill="#842C34"/>
<path d="M129.741 69.2311V69.3243H129.854C130.145 69.3243 130.377 69.5277 130.389 69.8106V74.225C130.385 74.5046 130.151 74.7297 129.863 74.7297H129.747V74.8229H132.92C134.935 74.8229 136.147 73.7853 136.147 72.0315C136.147 70.2749 134.935 69.2311 132.92 69.2311H129.741H129.741ZM131.749 69.5978H132.809C133.99 69.5978 134.714 70.5064 134.714 72.0318C134.714 73.5478 133.984 74.4486 132.809 74.4486H131.749V69.5978Z" fill="#842C34"/>
<path d="M140.225 69.1129C138.238 69.1129 136.904 70.2265 136.904 72.03C136.904 73.8272 138.238 74.9439 140.225 74.9439C142.22 74.9439 143.553 73.8272 143.553 72.03C143.553 70.2268 142.22 69.1129 140.225 69.1129ZM140.225 74.5758C139.087 74.5758 138.343 73.6018 138.343 72.03C138.343 70.4519 139.087 69.4778 140.225 69.4778C141.37 69.4778 142.108 70.4519 142.108 72.03C142.108 73.602 141.37 74.5758 140.225 74.5758Z" fill="#842C34"/>
<path d="M152.105 72.4868C151.873 74.0043 151.272 74.5758 149.931 74.5729C148.697 74.5433 147.974 73.5526 147.974 72.0052C147.974 70.4859 148.66 69.4779 150.027 69.4779C150.957 69.4779 151.655 69.871 151.973 71.0156H152.046V69.5353C151.552 69.2976 150.79 69.1112 149.93 69.1112C147.81 69.1112 146.543 70.1969 146.543 72.0236C146.543 73.8706 147.84 74.9346 149.93 74.944C151.153 74.944 151.922 74.4826 152.288 73.8923L152.179 72.4865H152.105L152.105 72.4868Z" fill="#842C34"/>
<path d="M4.47532 55.0661C4.10771 53.633 4.84766 52.0094 6.69342 51.8989C8.84266 51.7623 10.0738 53.8191 10.0738 56.3274C10.0738 59.158 8.50105 60.9865 6.23538 60.9865C3.9437 60.9865 2.35681 59.083 2.35681 55.9862C2.35681 54.2872 2.81692 52.5297 3.82047 51.6896L3.73507 51.5554C1.48388 52.1671 0.0178528 54.005 0.0178528 56.3602C0.0178528 59.4898 2.58229 61.5815 6.23774 61.5815C9.88374 61.5815 12.4127 59.5039 12.4127 56.3391C12.4127 52.8706 9.2744 51.0283 6.71233 51.3036C4.27142 51.553 3.6544 53.6424 4.31397 55.0778L4.47532 55.0661Z" fill="#842C34"/>
<path d="M17.0339 51.5012L17.0363 51.6425H17.2142C17.6887 51.6402 18.0776 51.9978 18.1225 52.4542V60.3558C18.1131 60.8476 17.7097 61.2428 17.2115 61.2428H17.0312L17.0289 61.384H21.3534L21.351 61.2428H21.1707C20.6749 61.2428 20.2694 60.8473 20.2597 60.3558V52.0965H21.2086C22.3495 52.0965 23.002 52.8824 23.0422 54.0848C23.054 54.353 23.0209 54.6848 22.9544 54.9342C22.4586 56.7132 20.7363 56.5344 20.7458 56.5438V56.678C22.7765 58.0006 25.4072 56.6405 25.3194 54.205C25.2695 52.6637 24.2139 51.5012 21.7801 51.5012H17.0333H17.0339Z" fill="#842C34"/>
<path d="M33.9764 51.5012V51.6425H34.2089C34.6147 51.6425 34.961 51.9271 34.961 52.3225V57.8921C34.9563 59.7886 33.872 60.9652 32.1333 60.9652C30.4323 60.9652 29.372 59.718 29.372 57.7086V52.3202C29.3886 51.9248 29.7184 51.6425 30.1217 51.6425H30.3543V51.5012H26.2526V51.6425H26.4852C26.8957 51.6425 27.2302 51.9365 27.2373 52.3413V57.8308C27.2373 60.1345 28.8289 61.5816 31.8774 61.5816C34.4371 61.5816 35.9719 60.1274 35.9719 57.8074V52.3085C35.9719 51.9201 36.323 51.6425 36.724 51.6425H36.9566V51.5012H33.977H33.9764Z" fill="#842C34"/>
<path d="M37.9093 51.5012L37.9117 51.6425H38.0919C38.5902 51.6402 38.9933 52.0379 39.003 52.5295V60.3605C38.9912 60.85 38.5878 61.2428 38.0919 61.2428H37.9117L37.9093 61.384H42.2385L42.2362 61.2428H42.0583C41.5577 61.2428 41.152 60.8473 41.1425 60.3558V52.1177C41.3228 52.1223 41.8446 52.1083 42.2244 52.1223C43.1591 52.1458 43.8446 52.7505 43.9014 54.1012C43.9132 54.3858 43.8825 54.6118 43.8491 54.7836C43.5952 56.0214 42.8171 56.4072 42.0509 56.4165H41.6168V56.5508C41.9868 56.6144 42.3142 56.9084 42.5799 57.5014C42.7365 57.9249 43.391 59.3225 43.766 59.9202C44.4705 61.0191 45.5524 61.3837 47.1109 61.3837H48.4963V61.2425C47.7536 61.2307 47.3482 60.9461 46.7338 60.172C46.1978 59.5084 45.3438 58.1647 45.3009 58.0967C44.9853 57.6025 44.4492 57.0426 43.8491 56.8471C45.4646 56.6871 46.1786 55.3505 46.1786 54.1625C46.1786 52.1977 44.5205 51.5012 42.7935 51.5012H37.909H37.9093Z" fill="#842C34"/>
<path d="M53.7273 51.3036C50.2282 51.3036 47.9888 53.2707 47.9888 56.4426C47.9888 59.6144 50.2282 61.5815 53.7273 61.5815C57.2265 61.5815 59.4682 59.6144 59.4682 56.4426C59.4682 53.2707 57.2265 51.3036 53.7273 51.3036ZM53.7273 60.9886C51.6422 60.9886 50.3281 59.2474 50.3281 56.4426C50.3281 53.6377 51.6422 51.8966 53.7273 51.8966C55.8148 51.8966 57.1292 53.6377 57.1292 56.4426C57.1292 59.2474 55.8151 60.9886 53.7273 60.9886Z" fill="#842C34"/>
<path d="M77.3049 63.8263C74.7168 64.4615 73.2224 61.4685 72.2972 59.1933L70.2286 54.1366C69.1683 51.5812 67.5005 49.6801 64.5637 51.1955L64.5968 51.3391C66.1766 50.7672 67.064 51.9297 67.6784 53.2969L64.5019 60.4736C64.1982 61.0147 63.7168 61.243 63.3181 61.243H63.1899V61.3843H66.2428V61.2454H66.1172C65.7496 61.2454 65.3391 60.923 65.5717 60.3584L66.3167 58.5701H69.6852L70.1406 59.7725C71.7467 63.9538 74.8401 65.2104 77.3238 63.9679L77.3049 63.8266V63.8263ZM66.5658 57.9745L68.0936 54.3272C68.2289 54.6918 68.3521 55.0447 68.4706 55.3554L69.4621 57.9745H66.5655H66.5658Z" fill="#842C34"/>
<path d="M83.5271 57.2635H83.4086C82.9651 60.0376 81.8549 60.9838 79.6651 60.9861C77.5466 60.9296 76.2112 59.1908 76.2112 56.3976C76.2112 53.6236 77.5918 51.8986 79.8478 51.8986C81.4134 51.8986 82.635 52.6375 83.1545 54.4915H83.273L83.2446 52.068C82.4382 51.6538 81.2213 51.3032 79.7053 51.3032C76.0901 51.3032 73.8909 53.2703 73.8909 56.4281C73.8909 59.4423 75.8835 61.313 79.0005 61.553L78.3339 62.4142L78.4074 62.5555C78.9199 62.3436 79.7526 62.4708 79.7168 63.0638C79.6693 63.798 78.9057 64.0662 78.3173 64.0662L78.3055 64.2075C79.3992 64.5745 80.6778 64.024 80.7228 63.0781C80.7656 62.1041 79.6125 62.0475 79.1096 62.217L79.6598 61.5818C81.8138 61.5818 83.0283 60.7393 83.6643 59.6947L83.5266 57.2638L83.5271 57.2635Z" fill="#842C34"/>
<path d="M89.401 51.2189H89.2727C89.2396 51.6284 88.6749 52.8518 88.573 53.0685L85.2828 60.4477C84.979 61.0079 84.4881 61.243 84.0848 61.243H83.9565V61.3843H87.0071V61.2453H86.8838C86.5162 61.2453 86.1058 60.9229 86.3383 60.3583L87.0665 58.6125H90.4066L91.1064 60.3583C91.3248 60.9232 90.9237 61.243 90.5585 61.243H90.4326V61.3843H94.966V61.243H94.8475C94.43 61.243 93.9412 61.0029 93.633 60.424L89.401 51.2189ZM87.3182 58.0192L88.7748 54.5508L90.1672 58.0192H87.3182Z" fill="#842C34"/>
<path d="M97.1463 50.6235C98.081 50.3999 99.2125 49.8869 100.059 49.3528C99.8839 48.8493 99.6017 48.4659 99.094 48.207C98.4773 48.7575 97.5284 49.706 97.0467 50.5247L97.1463 50.6235ZM99.4616 61.2427H99.2837C98.7855 61.2427 98.3797 60.8472 98.3703 60.3557V52.52C98.3845 52.0328 98.7878 51.64 99.2837 51.64H99.4616L99.464 51.4988H95.1418L95.1442 51.64H95.3245C95.8203 51.64 96.2234 52.0328 96.2355 52.5223V60.3557C96.2261 60.8475 95.8227 61.2427 95.3245 61.2427H95.1442L95.1418 61.3839H99.464L99.4616 61.2427Z" fill="#842C34"/>
<path d="M104.199 51.5012L104.201 51.6425H104.382C104.851 51.6425 105.238 51.9954 105.288 52.4495V60.3581C105.278 60.8476 104.873 61.2428 104.377 61.2428H104.197L104.194 61.384H109.359C112.72 61.384 114.815 59.4946 114.815 56.4473C114.815 53.3954 112.72 51.5036 109.359 51.5036L104.199 51.5012ZM107.425 52.0989H109.185C111.218 52.0989 112.494 53.765 112.494 56.4473C112.494 59.1226 111.225 60.784 109.185 60.784H107.425V52.0989Z" fill="#842C34"/>
<path d="M119.974 51.2189H119.846C119.813 51.6284 119.248 52.8518 119.146 53.0685L115.856 60.4477C115.552 61.0079 115.061 61.243 114.658 61.243H114.53V61.3843H117.58V61.2453H117.457C117.089 61.2453 116.679 60.9229 116.911 60.3583L117.64 58.6125H120.98L121.68 60.3583C121.898 60.9232 121.497 61.243 121.132 61.243H121.006V61.3843H125.539V61.243H125.421C125.003 61.243 124.514 61.0029 124.206 60.424L119.974 51.2189ZM117.891 58.0192L119.348 54.5508L120.74 58.0192H117.891Z" fill="#842C34"/>
<path d="M142.394 63.8263C139.806 64.4615 138.311 61.4685 137.386 59.1933L135.318 54.1366C134.257 51.5812 132.589 49.6801 129.653 51.1955L129.686 51.3391C131.266 50.7672 132.153 51.9297 132.767 53.2969L129.591 60.4736C129.287 61.0147 128.806 61.243 128.407 61.243H128.279V61.3843H131.332V61.2454H131.206C130.839 61.2454 130.428 60.923 130.661 60.3584L131.406 58.5701H134.774L135.23 59.7725C136.836 63.9538 139.929 65.2104 142.413 63.9679L142.394 63.8266V63.8263ZM131.655 57.9745L133.183 54.3272C133.318 54.6918 133.441 55.0447 133.56 55.3554L134.551 57.9745H131.654H131.655Z" fill="#842C34"/>
<path d="M149.942 51.3083H149.812L145.578 58.5061L141.163 51.3036H141.03L139.851 60.3581C139.777 60.9159 139.322 61.2427 138.81 61.2427H138.584V61.384H141.564V61.2497H141.341C141.035 61.2497 140.752 60.951 140.786 60.6474L141.348 55.567L145.011 61.6662H145.144C145.163 60.9792 145.694 60.1063 145.694 60.1063L148.361 55.5318L148.923 60.6474C148.956 60.951 148.674 61.2497 148.368 61.2497H148.144V61.384H152.422V61.2427H152.196C151.686 61.2427 151.247 60.9156 151.157 60.3581L149.943 51.3083H149.942Z" fill="#842C34"/>
<path fill-rule="evenodd" clip-rule="evenodd" d="M97.576 34.9437C97.9927 35.0841 98.534 34.5556 98.6862 34.3135C98.8768 34.0104 98.8411 33.6156 99.4022 33.1897C99.7899 32.8954 100.415 32.8716 100.726 33.2225C101.135 33.6836 100.907 34.1795 100.83 34.7326C101.561 34.8683 101.294 34.4424 101.601 34.7819C101.481 35.1116 101.091 35.0539 100.68 35.0554C100.679 35.0556 99.7793 36.1396 98.9853 35.3819C98.7749 35.1811 98.8417 35.0266 98.7196 34.8059C98.0869 35.2262 97.6989 35.8142 96.8682 35.0697C96.6159 35.1846 96.2282 35.7298 95.6708 35.4874C94.9427 35.1711 95.5379 33.8339 96.1714 33.1709C96.6268 32.694 96.7524 32.7491 97.4788 32.8511C98.266 29.8956 99.2137 31.1788 99.2048 32.0793C99.1954 33.0232 98.6584 33.7809 98.0187 34.3017C97.7787 34.497 97.4601 34.5521 97.5757 34.9434L97.576 34.9437ZM139.139 33.4971C139.284 34.6116 140.342 34.9311 141.425 34.4225C142.782 33.7856 142.767 33.3772 143.32 32.5166C144.059 31.3659 145.176 30.1192 146.691 30.1928C147.123 30.2139 147.912 30.4059 148.155 30.6202C147.576 31.3298 147.268 31.3489 147.272 32.944C147.277 35.0319 146.526 36.4629 144.182 36.2604C143.71 36.2196 143.272 36.0631 142.946 35.8497C142.323 35.4423 142.394 35.2734 142.116 35.0422C141.291 35.466 140.488 36.018 139.246 35.7415C137.842 35.4294 137.584 34.1684 137.378 33.906C136.844 34.3533 136.243 35.5545 134.718 35.8773C133.601 36.1135 132.478 35.6694 132.057 34.6066C131.998 34.4591 131.978 34.3056 131.879 34.1924C131.326 34.8613 130.279 36.6599 128.856 36.3222C128.167 36.159 127.795 35.5082 127.908 34.6945C128.009 33.9734 128.29 33.3063 128.512 32.6782C128.611 32.3959 128.769 31.9688 128.796 31.647C128.866 30.845 128.126 30.626 127.07 32.6515C126.768 33.2322 126.516 33.8591 126.303 34.4794C125.517 36.7719 126.147 36.5031 125.008 36.6112C124.73 36.6376 124.469 36.6766 124.198 36.6669L124.332 36.025C123.914 36.348 123.613 36.8662 122.743 37.0096C121.832 37.1597 121.46 36.6828 121.196 36.0948C120.964 36.2739 120.483 37.1793 119.294 37.3687C118.59 37.4806 117.917 37.2863 117.571 36.7103C117.459 36.5245 117.444 36.2838 117.341 36.1516L116.69 36.8909C116.448 37.1353 116.183 37.3282 115.811 37.4806C114.325 38.0886 113.021 36.8229 114.141 34.4747C114.406 33.9204 115.241 32.7849 114.984 32.4129C114.706 32.2042 114.239 32.2493 113.895 32.3891C113.685 32.4744 113.714 32.5363 113.628 32.7702L113.081 34.1822C112.918 34.6063 112.94 34.9044 112.419 34.7426C112.221 34.2584 112.943 33.1079 113.046 32.5087C112.06 32.2473 111.914 31.0499 112.677 30.5847C113.54 30.058 114.452 30.721 114.281 31.8176C114.945 31.7208 117.337 30.9822 116.367 33.4432C116.032 34.2909 114.729 36.2404 115.331 36.5511C116.169 36.7074 116.857 35.6574 117.172 35.1518C117.888 34.0022 118.064 32.4712 119.748 31.2269C120.571 30.6193 121.293 30.5797 122.241 31.0645C122.527 30.9147 122.181 30.9338 122.519 30.8447L123.897 30.7181C123.854 31.3081 123.394 32.7341 123.236 33.3306C123.075 33.94 122.476 35.4883 122.895 35.9054C123.79 36.0426 124.616 34.4759 124.93 33.7272C125.389 32.633 125.529 31.6352 125.907 30.4833L127.363 30.3669L127.206 31.1372C127.665 30.7055 127.972 30.281 128.699 30.0099C129.601 29.6743 130.257 30.0638 130.391 30.8658C130.65 32.4196 128.958 34.7197 129.647 35.1154C130.294 35.4871 131.575 33.6528 131.86 33.0393C132.11 32.5002 132.092 31.0713 133.401 30.1324C135.413 28.69 137.213 29.8912 136.752 31.3392C136.404 32.4308 134.929 31.8132 135.388 31.0206C135.396 31.0056 136.094 30.3827 135.349 30.201C133.708 29.8003 132.561 33.8172 134.435 34.679C135.507 35.1717 136.617 33.7806 137.11 33.1093C137.446 32.6532 137.346 32.6483 137.514 32.0515C137.962 30.4581 139.068 29.2991 140.846 29.5031C142.835 29.7317 143.013 31.6915 141.327 32.7031C140.618 33.1284 140.007 33.2445 139.139 33.4965L139.139 33.4971ZM141.703 28.6428C141.383 28.738 140.586 28.69 140.21 28.692C139.508 28.6955 139.196 28.6272 139.817 28.177C140.917 27.38 141.772 28.3447 141.703 28.6428ZM108.407 32.2971C109.287 32.4756 110.385 32.7432 111.307 32.6295C111.708 32.58 111.917 32.4378 112.237 32.385C112.083 32.9088 111.308 33.2937 110.62 33.4101C109.658 33.5725 109.038 33.3978 108.139 33.3767C107.743 35.4197 107.328 37.0629 106.097 38.1047C104.206 39.706 102.002 38.1947 103.032 36.6344C103.156 36.4459 103.088 36.487 103.322 36.4254C103.473 37.0685 103.746 37.3226 104.515 37.0225C105.293 36.7194 105.724 35.442 106.041 34.6418C106.207 34.2249 106.479 33.6073 106.579 33.1603C106.226 32.9865 105.52 33.0607 105.097 33.1158C104.521 33.1905 104.152 33.4455 103.772 33.4998C103.924 33.0841 104.544 32.6357 105.007 32.4299C105.727 32.1092 106.169 32.1863 106.969 32.1063C107.636 30.6448 107.662 30.2834 108.777 28.9292C108.913 28.7641 109.01 28.6519 109.168 28.5068C109.295 28.3901 109.543 28.2629 109.597 28.0803L107.643 27.7159C106.165 27.477 103.924 27.3287 102.819 28.5279C102.483 28.8925 102.604 28.838 102.422 29.3193C102.323 29.2929 102.286 29.4796 102.228 28.882C102.089 27.4662 103.05 26.6657 104.454 26.3134C107.138 25.6398 109.263 27.1397 111.619 25.5351C113.158 24.4872 114.173 22.951 114.973 21.294C115.063 21.1084 115.058 20.9566 115.271 20.9C115.35 21.5622 114.59 23.9136 114.349 24.5077C112.791 28.3441 110.505 27.7605 110.122 28.2658C109.412 29.2032 108.57 31.0947 108.407 32.2971H108.407ZM141.611 15.3603L141.897 14.904L144.2 14.8576C144.081 15.6162 143.811 16.4974 143.622 17.2548C143.37 18.2616 142.597 21.1767 142.454 21.9837C142.141 23.7433 144.14 24.0452 146.143 19.0504C146.422 18.3554 146.668 17.6177 146.883 16.8667C147.101 16.1049 147.248 15.2232 147.48 14.4848L149.881 13.691C149.806 14.2433 149.172 16.7377 148.998 17.4523C148.686 18.7388 148.393 19.9579 148.083 21.2506C147.616 23.1954 149.176 22.1071 150.109 20.8824C150.57 20.278 151.063 19.3544 151.347 18.5967C151.451 18.3176 151.533 17.992 151.663 17.7241L152.479 17.6904C152.336 18.9983 150.924 21.6275 149.991 22.6555C149.192 23.5349 147.594 24.8346 146.33 23.7354C146.167 23.5935 146.025 23.4408 145.897 23.2461C145.768 23.0483 145.699 22.81 145.546 22.6376C145.133 22.9932 144.351 24.3319 142.882 24.7416C141.832 25.0345 141.013 24.5708 140.397 23.8415C140.186 23.592 140.09 23.3654 139.883 23.1066C139.659 23.1907 139.739 23.2092 139.527 23.4033C137.404 25.3475 134.902 24.1352 134.173 22.2405C134.068 21.9684 134.014 21.3643 133.894 21.1597C133.305 21.6308 132.876 22.3762 131.488 22.6611C130.622 22.839 131.058 22.504 130.249 23.3819C130.086 23.5592 129.96 23.6741 129.758 23.8673C129.522 24.0924 129.331 24.1331 129.284 24.3515C130.148 24.6956 131.028 25.4554 131.295 26.3371C131.953 28.5153 128.709 29.4134 126.425 28.0363C125.907 27.7241 124.462 26.6229 124.528 25.9088C124.763 25.7245 124.983 25.6726 125.387 25.672C125.977 26.43 126.456 27.0658 127.676 27.3422C130.164 27.9062 130.126 25.5152 128.01 24.9521C127.74 24.8803 127.405 24.9105 127.188 24.7921C126.935 24.6537 126.886 24.3533 127.072 24.0642C127.268 23.7597 127.95 23.561 128.371 23.3602C128.645 23.2297 129.481 22.8164 129.631 22.6221C129.238 22.4119 128.079 22.2243 127.057 21.2471C125.361 19.6249 125.14 17.3975 125.957 15.2238C126.332 14.2251 126.941 13.4732 127.758 13.0163C130.427 11.5225 134.163 14.1732 133.33 16.4897C132.898 17.6889 131.036 16.8013 131.097 15.8135C131.13 15.2841 131.836 14.9025 131.404 14.2861C130.966 13.662 129.703 13.521 128.859 14.7597C128.308 15.5682 128.038 16.8585 128.196 18.0784C128.481 20.2786 130.413 21.9986 132.774 20.5919C133.209 20.3331 133.552 20.0221 133.845 19.7088C134.242 19.284 134.099 19.1357 134.438 18.2945C135.2 16.4015 136.565 14.8993 138.645 14.4813C139.225 14.3649 139.879 14.3945 140.42 14.5695C141.117 14.7955 141.217 15.0488 141.611 15.3603ZM147.192 12.5704C148.673 11.5217 150.379 9.85644 151.188 7.79112C151.439 7.75946 151.941 7.8175 152.243 7.81574C152.624 7.81369 152.961 7.75126 153.324 7.74686C152.969 8.71122 151.633 10.1786 150.906 10.8659C150.328 11.4129 148.34 12.9855 147.669 13.1209C147.531 12.9858 147.263 12.7328 147.192 12.5704ZM114.661 2.52904C114.385 1.70185 116.492 0.257358 119.705 1.46794C121.055 1.9765 122.499 2.85117 123.622 3.74196C124.573 4.49616 123.931 4.04212 125.103 3.78886C125.369 3.73141 125.976 3.62296 126.212 3.81524C125.044 4.59201 124.298 5.4702 123.642 6.76755C122.983 8.07339 122.634 9.46806 122.403 11.0984C121.921 14.5126 121.895 17.8296 123.449 20.5046C124.554 22.4078 125.824 22.3287 126.623 22.8668C127.83 23.6791 125.314 24.5983 123.263 23.4496C122.258 22.8871 121.196 21.714 120.657 20.5228C119.967 19 119.81 17.7282 119.714 15.8821C119.605 15.851 118.625 15.7895 117.925 15.6236C117.395 15.4978 116.712 15.2314 116.242 15.1651L114.97 18.0582C113.682 20.7479 112.045 23.6844 108.672 24.3026C105.127 24.9524 100.907 23.5689 97.7045 25.8845C96.4087 26.8213 96.2013 27.5307 95.8003 27.9991C95.7477 28.0603 95.7616 28.0454 95.709 28.0905C95.7444 26.304 97.3402 24.3902 98.7433 23.4024C103.015 20.3947 106.739 22.149 109.763 18.8834C110.677 17.8961 111.508 16.7635 112.325 15.6441C112.541 15.3483 113.105 14.7061 113.08 14.4842C112.052 14.3778 110.419 14.6276 109.516 15.0725C109.167 15.2446 108.904 15.5054 108.55 15.5567C108.559 14.9371 110.019 13.9417 110.709 13.6049C112 12.9758 112.65 13.0509 114.183 12.9805C114.387 12.7445 115.507 10.7329 115.735 10.3287C116.657 8.69041 118.057 6.70863 119.383 5.46463C119.687 5.18001 120.173 4.81214 120.601 4.56358C121.472 4.05765 121.853 4.16552 122.182 3.97734C121.957 3.57342 119.484 2.51702 118.914 2.35932C116.216 1.61274 115.615 2.86319 114.661 2.52904H114.661ZM90.8836 2.40622C91.4988 3.95213 91.5174 3.72965 91.2988 5.32833C91.8366 5.70557 92.1315 5.81344 92.3913 6.47531C92.6401 7.10962 92.4909 7.7196 92.1809 8.1883C91.586 9.08759 90.6368 9.1465 89.5349 9.39712C89.4876 9.40797 89.3558 9.43347 89.3156 9.44812L89.1661 9.53372C89.1141 9.44138 89.0157 10.2425 89.0257 10.4075C89.0381 10.6136 89.2408 10.7962 89.3478 11.0084C89.5683 11.4472 89.6829 11.9089 89.7119 12.4957C90.0426 12.5241 96.8656 9.42116 99.5917 9.42116C103.282 9.42116 104.872 12.3119 102.6 15.2856C102.427 15.5116 102.155 15.778 102.042 15.9744C102.369 16.7579 102.326 16.8286 102.086 17.7006C101.939 18.2315 101.75 18.7195 101.513 19.1835C100.612 20.9501 98.8473 22.4905 96.909 22.9445C96.2716 23.094 95.6977 23.0946 95.0181 23.0187C94.3192 22.9407 93.8984 22.7048 93.3209 22.5986C93.2627 23.1691 93.0636 24.6988 92.7651 24.9802C92.4193 25.3065 91.0638 25.4938 90.5195 25.6653C89.5635 29.2173 89.5898 27.8865 90.2547 29.2923C90.805 30.4557 90.6274 31.6332 89.5969 32.4261L89.383 32.6192C89.5715 33.6504 90.5437 34.9191 90.0328 36.049C89.8437 36.4673 89.4613 36.9765 89.1974 37.3818C88.9521 37.7588 88.5816 38.2773 88.4102 38.6493L102.388 38.6601C102.654 39.1288 103.426 39.5808 104.274 39.5808C106.168 39.5808 106.174 38.6399 107.104 38.6475C107.485 38.6508 107.867 38.6496 108.249 38.6496H141.408C144.611 38.6496 146.871 38.498 149.62 37.4217C153.974 35.7169 157.424 32.5779 159.477 28.396C160.717 25.8719 161.283 23.2802 161.283 20.1895C161.283 15.6599 159.243 11.0635 156.17 7.91511C153.646 5.32979 149.55 2.80926 144.22 2.42468C142.83 2.32444 141.241 2.39186 139.829 2.39186H124.583C123.4 2.39186 123.367 2.52083 122.71 2.10577C120.899 0.960259 118.354 -0.273189 116.058 0.323017C114.963 0.607343 113.962 1.21146 113.776 2.39156L90.8836 2.40563V2.40622Z" fill="#842C34"/>
<path d="M159.374 69.3243V69.2311H156.783V69.3243H156.886C157.168 69.3243 157.395 69.5371 157.403 69.8182V71.853H154.929V69.8135C154.939 69.5353 155.163 69.3243 155.445 69.3243H155.547V69.2311H152.955V69.3243H153.06C153.337 69.3243 153.569 69.5371 153.572 69.8182V74.2358C153.569 74.5169 153.337 74.7297 153.06 74.7297H152.955V74.8229H155.547V74.7297H155.445C155.163 74.7297 154.938 74.5169 154.929 74.2373V72.2194H157.403V74.2373C157.393 74.5169 157.168 74.7297 156.886 74.7297H156.784V74.8229H159.368V74.7297H159.263C158.983 74.7297 158.759 74.5201 158.753 74.2434V69.8182C158.76 69.5371 158.988 69.3243 159.27 69.3243H159.374H159.374Z" fill="#842C34"/>
<path d="M164.731 73.1097H164.64C164.395 73.9345 163.85 74.4408 163.056 74.4487H161.925V72.2382H163.005C163.439 72.2506 163.71 72.5613 163.71 72.9746V73.0399H163.807V71.0672H163.71V71.1279C163.71 71.5456 163.434 71.8563 162.993 71.8642H161.925V69.6057H163.278C163.821 69.6136 164.131 69.9507 164.131 70.488V70.5733H164.23V69.0869C164.081 69.1458 163.607 69.2282 163.253 69.23H159.947V69.3232H160.059C160.338 69.3232 160.564 69.5313 160.568 69.8109V74.2426C160.562 74.519 160.337 74.7289 160.059 74.7289H159.947V74.8221H164.344H164.366L164.731 73.1103L164.731 73.1097Z" fill="#842C34"/>
<path d="M169.496 69.0884C169.346 69.1473 168.87 69.2297 168.514 69.2314H165.199V69.3246H165.314C165.592 69.3246 165.821 69.5327 165.824 69.8124V74.2423C165.818 74.5205 165.591 74.7301 165.314 74.7301H165.199V74.8233H167.81V74.7301H167.697C167.412 74.7301 167.188 74.5173 167.18 74.2362V72.2385H168.268C168.704 72.2526 168.975 72.5616 168.975 72.9749V73.0417H169.073V71.069H168.975V71.1279C168.975 71.5456 168.699 71.8563 168.257 71.8657H167.18V69.6057H168.531C169.087 69.6136 169.399 69.9569 169.399 70.4942V70.5812H169.496V69.0884Z" fill="#842C34"/>
<path d="M157.322 51.2189H157.194C157.161 51.6284 156.596 52.8518 156.494 53.0685L153.204 60.4477C152.9 61.0079 152.41 61.243 152.006 61.243H151.878V61.3843H154.929V61.2453H154.805C154.438 61.2453 154.027 60.9229 154.26 60.3583L154.988 58.6125H158.328L159.028 60.3583C159.246 60.9232 158.845 61.243 158.48 61.243H158.354V61.3843H162.887V61.243H162.769C162.351 61.243 161.863 61.0029 161.554 60.424L157.322 51.2189ZM155.24 58.0192L156.696 54.5508L158.089 58.0192H155.24Z" fill="#842C34"/>
<path d="M171.338 58.5413C170.963 59.9085 170.026 60.7931 168.78 60.7931H165.791L171.072 51.4256V51.3033C170.903 51.3904 170.137 51.4845 169.563 51.4845H165.036C164.427 51.4892 163.58 51.3432 163.309 51.2303V53.694L163.454 53.6917V53.5246C163.452 52.6634 164.007 52.0939 164.885 52.0845H168.327L163.108 61.2518L163.106 61.3837H170.965L171.482 58.5437L171.337 58.5413H171.338Z" fill="#842C34"/>
<path d="M177.956 48.3411H178.115L180.295 50.5058L180.2 50.6186L178.027 49.7008L175.999 50.6186L175.904 50.5058L177.956 48.3411ZM178.041 51.3036C174.542 51.3036 172.303 53.2708 172.303 56.4426C172.303 59.6144 174.542 61.5816 178.041 61.5816C181.541 61.5816 183.782 59.6144 183.782 56.4426C183.782 53.2708 181.541 51.3036 178.041 51.3036ZM178.041 60.9886C175.956 60.9886 174.642 59.2475 174.642 56.4426C174.642 53.6377 175.956 51.8966 178.041 51.8966C180.129 51.8966 181.443 53.6377 181.443 56.4426C181.443 59.2475 180.129 60.9886 178.041 60.9886Z" fill="#842C34"/>
<path d="M191.739 51.5012L191.741 51.6425H192.004C192.484 51.6425 192.875 52.0236 192.882 52.499V58.0803L185.701 51.2893H185.561C185.561 51.2893 185.727 52.0045 185.727 53.0542V60.3886C185.718 60.8617 185.329 61.2428 184.85 61.2428H184.586L184.584 61.3841H188.899L188.897 61.2428H188.633C188.154 61.2428 187.765 60.8641 187.756 60.391V54.7883L194.946 61.5816H195.076C195.076 61.5816 194.912 60.845 194.912 59.7816V52.487C194.927 52.0162 195.313 51.6422 195.79 51.6422H196.053L196.056 51.5009H191.738L191.739 51.5012Z" fill="#842C34"/>
<path d="M201.159 61.2427H200.981C200.482 61.2427 200.077 60.8472 200.067 60.3557V52.52C200.081 52.0328 200.485 51.6401 200.981 51.6401H201.159L201.161 51.4988H196.839L196.841 51.6401H197.021C197.517 51.6401 197.92 52.0328 197.933 52.5224V60.3557C197.923 60.8475 197.52 61.2427 197.021 61.2427H196.841L196.839 61.3839H201.161L201.159 61.2427Z" fill="#842C34"/>
<path d="M206.527 51.2189H206.399C206.366 51.6284 205.801 52.8518 205.699 53.0685L202.409 60.4477C202.105 61.0079 201.614 61.243 201.211 61.243H201.083V61.3843H204.133V61.2453H204.01C203.642 61.2453 203.232 60.9229 203.465 60.3583L204.193 58.6125H207.533L208.233 60.3583C208.451 60.9232 208.05 61.243 207.685 61.243H207.559V61.3843H212.092V61.243H211.974C211.556 61.243 211.067 61.0029 210.759 60.424L206.527 51.2189ZM204.444 58.0192L205.901 54.5508L207.293 58.0192H204.444Z" fill="#842C34"/>
<path fill-rule="evenodd" clip-rule="evenodd" d="M220.922 55.2261C220.884 55.2806 220.799 55.5134 220.794 55.5943C221.348 55.5213 221.644 55.4887 222.219 55.5339C223.302 55.6189 224.388 56.0603 225.211 56.7295C225.246 56.7576 225.278 56.7829 225.313 56.8148C225.334 56.8333 225.4 56.8913 225.423 56.9048C225.459 56.8579 225.507 56.5829 225.511 56.5349C225.405 56.4088 224.778 56.0043 224.629 55.9243C223.902 55.5327 223.211 55.2909 222.351 55.2032C222.113 55.1789 221.869 55.1698 221.626 55.1739C221.506 55.176 221.387 55.1824 221.268 55.1915C221.159 55.2 221.024 55.2246 220.922 55.2261H220.922Z" fill="#FCFCFC"/>
<path fill-rule="evenodd" clip-rule="evenodd" d="M217.414 56.2028C217.433 56.162 217.724 55.9949 217.764 55.9686L218.834 55.292C219.312 54.9922 219.778 54.6897 220.264 54.3845L222.403 53.0315C222.483 52.9814 223.096 52.5819 223.124 52.5819C223.147 52.5819 225.899 54.3312 225.984 54.3845C226.701 54.8354 227.407 55.2976 228.122 55.739L228.748 56.1362C228.778 56.1556 228.818 56.1682 228.833 56.2031L225.983 58.0116C225.376 58.3871 224.797 58.7676 224.202 59.1401L223.124 59.8181C223.072 59.7967 222.995 59.7407 222.942 59.7079C222.049 59.1501 221.164 58.5688 220.27 58.0151C219.673 57.6452 219.085 57.2609 218.488 56.8863L217.414 56.2031L217.414 56.2028ZM216.23 60.9847H230.018V51.4111H216.23V60.9847Z" fill="#019D3A"/>
<path fill-rule="evenodd" clip-rule="evenodd" d="M220.794 55.5942C220.799 55.5133 220.884 55.2806 220.922 55.2261C220.968 55.0452 221.235 54.6993 221.364 54.5598C221.521 54.3892 221.74 54.2177 221.988 54.0864C223.363 53.356 225.048 54.1064 225.45 55.5596C225.525 55.8311 225.571 56.2391 225.511 56.5351C225.506 56.5832 225.459 56.8582 225.423 56.9051C225.419 56.9939 225.29 57.2562 225.25 57.3307C225.047 57.7026 224.755 58.0119 224.385 58.2385C222.766 59.2292 220.645 58.0394 220.712 56.1002C220.716 55.9864 220.748 55.6716 220.793 55.5945L220.794 55.5942ZM218.489 56.886C219.086 57.2606 219.673 57.6449 220.27 58.0148C221.164 58.5685 222.049 59.1501 222.942 59.7076C222.995 59.7407 223.072 59.7967 223.124 59.8178L224.202 59.1398C224.797 58.7672 225.377 58.3868 225.984 58.0113L228.834 56.2027C228.818 56.1679 228.778 56.1556 228.748 56.1359L228.122 55.7387C227.407 55.2973 226.701 54.835 225.984 54.3842C225.9 54.3312 223.147 52.5815 223.124 52.5815C223.096 52.5815 222.483 52.9811 222.403 53.0312L220.264 54.3842C219.778 54.6894 219.312 54.9919 218.834 55.2917L217.765 55.9682C217.724 55.9946 217.434 56.162 217.414 56.2025L218.489 56.8857L218.489 56.886Z" fill="#FFDF00"/>
<path fill-rule="evenodd" clip-rule="evenodd" d="M220.793 55.5943C220.748 55.6714 220.717 55.9862 220.713 56.0999C220.645 58.0392 222.766 59.2289 224.385 58.2382C224.755 58.0116 225.048 57.7024 225.25 57.3304C225.291 57.256 225.419 56.9936 225.423 56.9048C225.4 56.8913 225.334 56.8333 225.314 56.8148C225.278 56.7829 225.246 56.758 225.211 56.7295C224.388 56.0603 223.302 55.6189 222.219 55.5339C221.644 55.4887 221.348 55.5213 220.794 55.5943H220.793Z" fill="#012975"/>
<path fill-rule="evenodd" clip-rule="evenodd" d="M220.922 55.2261C221.025 55.2249 221.16 55.2 221.268 55.1915C221.387 55.1821 221.506 55.1757 221.627 55.1739C221.87 55.1701 222.114 55.1789 222.352 55.2032C223.211 55.2909 223.902 55.5327 224.629 55.9243C224.778 56.0043 225.405 56.4088 225.511 56.5349C225.572 56.2388 225.525 55.8308 225.45 55.5594C225.049 54.1064 223.364 53.3557 221.988 54.0861C221.741 54.2178 221.521 54.3889 221.364 54.5595C221.236 54.6991 220.969 55.0449 220.923 55.2258L220.922 55.2261Z" fill="#002775"/>
</svg>
