<svg width="80" height="80" viewBox="0 0 80 80" fill="none" xmlns="http://www.w3.org/2000/svg">
<path d="M40 80C62.0914 80 80 62.0914 80 40C80 17.9086 62.0914 0 40 0C17.9086 0 0 17.9086 0 40C0 62.0914 17.9086 80 40 80Z" fill="#EBB9B9"/>
<path fill-rule="evenodd" clip-rule="evenodd" d="M36.1817 22.8651C36.1817 21.4872 37.2687 21.707 38.884 21.707C38.9125 21.364 39.1499 20.7267 39.2686 20.451C39.9567 18.8524 41.5451 19.8642 41.5862 21.707C43.2164 21.707 44.2884 21.4519 44.2884 22.9616C44.2884 23.476 42.6478 24.4353 42.6478 24.6023C42.6478 25.4435 43.8495 26.8964 42.8828 27.6372C42.0113 28.305 41.0482 27.0769 40.235 26.5324C39.7398 26.864 39.132 27.4676 38.7585 27.6641C38.4121 27.8463 38.2229 27.8991 37.8398 27.7785C36.9348 27.4937 37.2439 26.3912 37.4712 25.6987C37.9764 24.1594 37.8962 24.6925 37.6818 24.4532C37.3202 24.0498 36.1817 23.6061 36.1817 22.8651L36.1817 22.8651ZM53.9391 24.6023C54.1909 25.6829 55.2007 27.1575 54.0691 27.7287C53.6696 27.9305 53.428 27.8805 53.0884 27.6754C52.806 27.505 52.5401 27.3001 52.2968 27.1132C51.9567 26.8521 51.9433 26.7529 51.5265 26.5324C51.0489 26.8522 50.585 27.382 50.0483 27.6645C49.6978 27.8489 49.5556 27.8869 49.1369 27.773C47.9008 27.4366 48.8889 25.2721 49.2104 24.6023C48.6562 24.2312 47.4732 23.5064 47.4732 22.7686C47.4732 21.5154 48.9249 21.707 50.1754 21.707C50.3991 20.7469 50.6919 19.6804 51.623 19.6804C52.7004 19.6804 52.6252 20.9799 52.9741 21.707C53.7711 21.707 55.6763 21.3968 55.6763 22.7686C55.6763 23.1465 55.2182 23.5911 54.9607 23.7901L53.9392 24.6023H53.9391ZM24.7938 22.7686C24.7938 21.4485 26.5624 21.707 27.4961 21.707C27.9571 20.7462 27.7954 19.6804 29.0402 19.6804C29.9063 19.6804 30.1203 20.9581 30.2948 21.707C31.5663 21.707 32.997 21.4791 32.997 22.7686C32.997 23.2261 32.5744 23.5662 32.2931 23.8018C31.9694 24.073 31.5849 24.3846 31.2599 24.6023C31.4436 24.9851 31.9354 26.4186 31.9354 26.9184C31.9354 27.4952 31.2574 28.113 30.4838 27.6993C29.9022 27.3883 29.3154 26.7813 28.9437 26.5324C27.9524 27.0569 27.2933 28.2919 26.2758 27.6587C25.2634 27.0287 26.4624 25.3295 26.531 24.5057C26.3154 24.4481 24.7938 23.4934 24.7938 22.7686L24.7938 22.7686ZM20.644 20.6454V26.8219C20.644 28.874 22.04 30.3633 23.6739 30.8371C25.3309 31.3175 33.7692 30.6789 35.642 31.1254C36.6575 31.3675 37.2657 32.7379 38.0926 33.9827C38.6911 34.8835 39.0908 35.5076 40.3316 35.5076C41.8634 35.5076 42.6005 33.4588 43.7627 31.8937C44.3853 31.0554 44.9227 30.9684 46.3149 30.9716C48.3664 30.9763 55.8088 31.1234 56.7962 30.8371C58.4301 30.3633 59.8261 28.874 59.8261 26.8219V20.6454C59.8261 19.5032 59.2912 18.3289 58.5 17.6286C57.6912 16.9129 56.6851 16.4956 55.1938 16.4956H25.2764C22.6345 16.4956 20.6441 18.1515 20.6441 20.6454H20.644Z" fill="#832B33"/>
<path fill-rule="evenodd" clip-rule="evenodd" d="M39.3664 52.5895C37.3743 52.6339 34.953 53.7087 33.369 54.8916C32.7706 55.3385 32.4353 55.7114 31.9112 56.2325C30.9872 57.151 30.3059 58.2736 29.7564 59.5787C29.4812 60.2324 29.2378 60.9396 29.0948 61.7158C29.0118 62.1665 28.9655 62.4336 28.9425 62.9153C28.8792 64.2474 27.9802 63.9773 32.804 63.9773C33.7484 63.9773 32.0964 60.8891 34.155 60.8891C35.8286 60.8891 34.4532 63.9773 35.3132 63.9773H45.1569C46.1014 63.9773 44.4494 60.8891 46.508 60.8891C48.1816 60.8891 46.8061 63.9773 47.6662 63.9773C52.4462 63.9773 51.6084 64.2291 51.5301 63.0102C51.2307 58.3552 47.8688 54.3455 43.4553 53.0365C42.8724 52.8637 41.7565 52.604 41.1036 52.5895L41.9866 52.3143C47.4032 50.361 46.0258 42.2632 40.1385 42.2632C38.2672 42.2632 36.455 43.4496 35.6324 45.0916C34.1288 48.0931 35.7601 51.5817 38.8514 52.4289L39.3664 52.5895V52.5895Z" fill="#832B33"/>
<path fill-rule="evenodd" clip-rule="evenodd" d="M27.0135 47.4748C24.1156 47.4748 21.4551 49.1437 19.6057 50.9723C17.7116 52.8451 16.4941 56.067 16.4941 58.7661H20.7405C20.7405 57.5192 20.3971 55.6779 21.7055 55.6779C23.014 55.6779 22.6707 57.5192 22.6707 58.7661H27.9785C28.0241 58.2191 28.8278 56.959 29.117 56.5268C30.0373 55.152 31.0538 54.0355 32.4181 53.0724C33.1303 52.5698 33.7463 52.2381 34.5411 51.8176C33.9829 50.984 33.5795 50.3404 33.3086 49.2863C33.1749 48.7661 33.243 48.7494 32.8108 48.5294C31.8345 48.0324 30.2308 47.4748 28.7506 47.4748C29.0077 47.2961 29.5464 47.2509 30.4566 46.768C30.7651 46.6042 30.8913 46.5002 31.1421 46.2953C35.0104 43.1347 32.4846 37.1484 28.1716 37.1484C25.7786 37.1484 24.2288 38.0939 23.2493 40.0432C22.844 40.8498 22.8652 40.935 22.7214 42.0322C22.4533 44.0761 23.9636 46.3195 26.0864 47.1473C26.4904 47.3049 26.5346 47.2249 26.953 47.4388C26.9663 47.4456 26.9943 47.4614 27.0136 47.4748L27.0135 47.4748Z" fill="#832B33"/>
<path fill-rule="evenodd" clip-rule="evenodd" d="M51.9124 47.3783V47.4748C50.448 47.4748 48.7648 48.0151 47.7243 48.4981C47.2654 48.7112 47.3072 48.712 47.1802 49.2086C46.6985 51.0912 46.0414 51.4929 45.929 51.9141C46.4948 52.046 47.601 52.7546 48.0385 53.0857C48.7336 53.6119 49.2421 54.0258 49.8624 54.6396C50.4958 55.2662 52.4101 57.7891 52.4914 58.7661H57.7993C57.7993 57.5192 57.456 55.6779 58.7644 55.6779C60.0729 55.6779 59.7295 57.5192 59.7295 58.7661H63.9759L63.6802 56.3595C63.5243 55.5961 63.2739 54.9314 62.9841 54.2569C62.4748 53.0716 61.9697 52.2712 61.1546 51.3575C60.9847 51.1671 60.9833 51.1183 60.8146 50.9255L59.3631 49.6749C58.6028 49.163 58.5656 49.0719 57.6407 48.5985C56.5845 48.0579 54.8107 47.4748 53.2635 47.4748V47.3783C55.9844 47.3783 59.0048 43.5829 57.286 40.171C56.2653 38.145 54.8191 37.1484 52.2985 37.1484C50.2122 37.1484 48.7237 38.5196 47.9226 40.1072C46.1404 43.6398 49.2275 47.3783 51.9125 47.3783H51.9124Z" fill="#832B33"/>
</svg>
