<svg width="80" height="80" viewBox="0 0 80 80" fill="none" xmlns="http://www.w3.org/2000/svg">
<path d="M40 80C62.0914 80 80 62.0914 80 40C80 17.9086 62.0914 0 40 0C17.9086 0 0 17.9086 0 40C0 62.0914 17.9086 80 40 80Z" fill="#EBB9B9"/>
<path fill-rule="evenodd" clip-rule="evenodd" d="M23.8661 35.6028C24.2914 36.2368 24.6545 36.9196 25.0513 37.6282C25.4705 38.3767 25.8496 38.9778 26.2708 39.73L32.2444 50.0307C32.471 50.4153 32.6525 50.735 32.8456 51.0903C33.0564 51.4779 33.2906 51.728 33.4002 52.1966L40.3014 49.4645C40.8337 49.2865 41.3417 49.1473 41.8228 48.9929C42.842 48.6659 43.799 48.4526 44.886 48.18C45.8937 47.9273 46.9675 47.7084 48.101 47.5189C49.2142 47.3326 50.269 47.2192 51.5145 47.0558L56.948 46.7293C57.8168 46.5631 58.1339 45.7758 57.4756 44.6946C57.271 44.3584 57.142 44.1093 56.9464 43.7846C56.5868 43.1879 56.2713 42.6515 55.9318 42.0312L43.6702 20.8581C43.0054 19.6987 42.1665 17.6552 41.2266 17.6561C40.3354 17.6569 40.3161 17.9298 39.893 18.6469C37.8263 22.1491 36.8149 23.2756 34.3888 26.312L29.4741 31.2482C27.735 32.7055 25.752 34.3371 23.8661 35.6026L23.8661 35.6028Z" fill="#832B33"/>
<path fill-rule="evenodd" clip-rule="evenodd" d="M13.0281 45.6849C13.031 48.8673 13.8908 49.6031 15.4635 52.3295C15.8857 53.0612 16.5028 54.2623 17.0469 54.8422C19.4434 57.3967 22.6898 58.1248 25.8786 56.5215C26.7746 56.0708 30.7266 53.6346 31.1874 53.527C31.0874 53.0998 30.3231 51.8872 30.0573 51.4464C29.638 50.7501 29.2997 50.1065 28.8793 49.4137L24.1302 41.2097C23.3391 39.7609 22.5281 38.4846 21.7641 37.0438C21.3617 37.0778 16.8027 39.7239 16.2156 40.1312C14.5306 41.2993 13.0258 43.4265 13.0279 45.6851L13.0281 45.6849Z" fill="#832B33"/>
<path fill-rule="evenodd" clip-rule="evenodd" d="M28.5349 57.9566C28.6825 58.5073 33.6522 63.2307 34.1573 63.7348C34.9822 64.5582 35.994 66.1067 37.6448 64.6173L39.7699 62.4258C41.0552 60.7301 39.0632 59.4533 37.3616 57.7551L34.2874 54.7418L28.5347 57.9569L28.5349 57.9566Z" fill="#832B33"/>
<path fill-rule="evenodd" clip-rule="evenodd" d="M49.8681 26.2817C49.9928 26.7467 50.717 27.7939 50.9768 28.2729C51.3983 29.0508 54.2868 33.8159 54.4136 34.3573C55.3723 34.1004 57.5519 30.2251 54.8794 27.576C54.3881 27.0889 54.2348 26.9033 53.5868 26.5444C52.7384 26.0744 50.8189 25.8241 49.8681 26.2817Z" fill="#832B33"/>
<path fill-rule="evenodd" clip-rule="evenodd" d="M52.6307 21.4087C52.632 22.8412 54.7678 23.2891 55.2689 21.7199C55.4549 21.137 55.5207 20.5525 55.6647 19.9032C55.8299 19.1567 56.3899 16.7899 56.3893 16.2034C56.3884 15.1912 54.148 13.9436 53.5934 16.6194C53.4614 17.2562 52.6302 20.8341 52.6307 21.409L52.6307 21.4087Z" fill="#832B33"/>
<path fill-rule="evenodd" clip-rule="evenodd" d="M59.0545 26.0519C59.0553 26.9396 59.8054 27.4902 60.3841 27.4896C60.8864 27.4892 64.2576 25.4529 65.0665 24.9757C67.2226 23.7037 65.6824 21.9752 64.5406 22.2348C64.0657 22.3427 61.1838 24.082 60.5556 24.4541C59.9438 24.8164 59.0537 25.1439 59.0545 26.0521L59.0545 26.0519Z" fill="#832B33"/>
<path fill-rule="evenodd" clip-rule="evenodd" d="M59.9472 33.9099C59.9485 35.3851 61.5001 35.5134 63.5329 36.1892C64.2797 36.4373 65.0419 36.7501 65.7927 36.9267C67.4743 37.322 68.2784 34.9038 66.4412 34.2726L61.385 32.6911C60.409 32.692 59.9468 33.5191 59.9472 33.9099Z" fill="#832B33"/>
</svg>
