<svg width="81" height="80" viewBox="0 0 81 80" fill="none" xmlns="http://www.w3.org/2000/svg">
<rect x="0.0178223" width="80" height="80" rx="40" fill="#8B2F37"/>
<path d="M40 80C62.0914 80 80 62.0914 80 40C80 17.9086 62.0914 0 40 0C17.9086 0 0 17.9086 0 40C0 62.0914 17.9086 80 40 80Z" fill="#EBB9B9"/>
<path fill-rule="evenodd" clip-rule="evenodd" d="M52.2759 50.4615C52.2759 51.6553 52.263 52.0352 51.3146 52.9794C50.8396 53.4522 50.1748 53.7527 49.2669 53.7527C49.2669 54.8292 49.4699 55.7274 48.2325 55.7274C47.1925 55.7274 47.3862 54.5066 47.3862 53.7527C45.6371 53.7527 44.3772 54.0642 44.3772 52.7183C44.3772 52.0527 44.9143 51.7863 45.595 51.7733C46.3378 51.7592 49.4575 51.9237 49.8951 51.6539C50.3922 51.3475 50.4984 50.6419 50.1354 50.1578C49.2951 49.0374 46.4848 50.5819 45.0319 48.6785C43.4615 46.6213 44.7932 43.7851 47.3863 43.7851C47.3863 42.7086 47.1833 41.8104 48.4208 41.8104C49.4609 41.8104 49.2671 43.0311 49.2671 43.7851C51.0161 43.7851 52.2761 43.4736 52.2761 44.8195C52.2761 45.4612 51.7238 45.7523 51.0583 45.7645C50.3165 45.7781 47.1953 45.6145 46.7581 45.8839C46.2611 46.1903 46.1549 46.8959 46.5179 47.3799C47.3581 48.5004 50.1685 46.9559 51.6215 48.8593C51.9016 49.2263 52.276 49.8167 52.276 50.4615H52.2759ZM35.256 48.6749C35.256 60.4462 49.381 66.1919 57.5654 58.0077C65.6823 49.8907 60.1078 35.6983 48.2325 35.6983C41.1623 35.6983 35.256 41.6043 35.256 48.6749Z" fill="#7F242C"/>
<path fill-rule="evenodd" clip-rule="evenodd" d="M54.3446 18.5842C54.3446 20.0747 55.913 19.7126 57.8238 19.7126L51.6409 25.9421C50.3688 25.6254 49.1556 25.4311 48.0192 26.7398C47.4032 27.4494 47.7262 27.7054 47.2921 27.7054H35.3498C35.0628 27.7054 34.9956 27.3625 34.8252 27.1016C34.7074 26.9213 34.7103 26.9264 34.5845 26.7781C34.3956 26.5553 34.4793 26.6502 34.2526 26.4519C32.9956 25.3523 31.0388 25.539 30.059 26.646C29.2552 27.5542 28.9725 28.8214 29.5198 29.9622L26.0179 33.0425C25.8315 33.2071 25.7368 33.3451 25.5427 33.5077L21.5271 37.0146C20.4467 36.443 18.8698 36.7304 18.0223 37.6473C16.4171 39.3837 17.2034 42.7506 20.3987 42.7506C21.8999 42.7506 23.0126 41.5586 23.2674 40.0639C23.3641 39.4963 23.1403 38.9858 23.0315 38.5191L24.6521 37.0367C24.886 36.8025 24.9853 36.7717 25.217 36.5672C25.423 36.3851 25.5301 36.2314 25.7444 36.0603L29.0356 33.1452C29.2951 32.938 29.3441 32.9031 29.5892 32.6646L30.6835 31.6854C30.9586 31.4722 31.0445 31.4595 31.3859 31.5627C33.2978 32.1407 34.7926 30.9549 35.0677 29.7741H47.48C48.9993 32.6451 51.8371 31.9336 52.8246 30.417C53.5517 29.3001 53.4289 28.7406 53.122 27.4233L59.3049 21.1938C59.3677 23.1986 58.9591 24.6964 60.4567 24.6964C61.0449 24.6964 61.397 24.175 61.397 23.568V18.6782C61.397 18.1416 61.0031 17.6439 60.2686 17.6439H55.4729C54.8659 17.6439 54.3445 17.9958 54.3445 18.5841L54.3446 18.5842Z" fill="#7F242C"/>
<path fill-rule="evenodd" clip-rule="evenodd" d="M19.1763 55.8214H35.0679C34.8357 55.3827 34.2676 54.3054 34.2215 53.7527H19.1763V55.8214Z" fill="#7F242C"/>
<path fill-rule="evenodd" clip-rule="evenodd" d="M23.2196 59.8648H38.0769C37.9642 59.4427 37.2956 59.0154 36.7314 58.2952C36.4099 57.8845 36.4403 57.796 36.1962 57.796H23.2195V59.8648H23.2196Z" fill="#7F242C"/>
<path fill-rule="evenodd" clip-rule="evenodd" d="M22.1853 49.9914V51.7779H33.5634C33.5634 51.1595 33.3342 50.345 33.2813 49.7092L23.4076 49.7091C22.936 49.7076 22.1853 49.5561 22.1853 49.9914Z" fill="#7F242C"/>
<path fill-rule="evenodd" clip-rule="evenodd" d="M24.254 47.8285H33.2812C33.3342 47.1927 33.5633 46.3782 33.5633 45.7598H24.254V47.8285Z" fill="#7F242C"/>
</svg>
