<svg width="80" height="80" viewBox="0 0 80 80" fill="none" xmlns="http://www.w3.org/2000/svg">
<path d="M40 80C62.0914 80 80 62.0914 80 40C80 17.9086 62.0914 0 40 0C17.9086 0 0 17.9086 0 40C0 62.0914 17.9086 80 40 80Z" fill="#EBB9B9"/>
<path fill-rule="evenodd" clip-rule="evenodd" d="M30.03 27.8425C30.03 28.26 30.031 27.9781 29.9482 28.0879C29.9482 27.6556 29.9489 27.9661 30.03 27.8425ZM30.03 27.8425C30.0473 27.066 30.571 27.1347 29.621 25.7165C30.0873 24.8351 30.382 24.6329 29.7952 24.5653C29.7173 24.5564 28.871 24.5554 28.7938 24.5642C27.9217 24.6641 28.9882 25.3036 28.8352 25.8213C28.7832 25.9973 28.5792 26.3117 28.49 26.4682C28.161 27.0447 28.5013 27.4038 28.5583 28.0879C28.41 27.9172 28.4514 27.9629 28.3614 27.7126L27.1681 24.5717C25.5963 24.5717 23.9157 24.4927 23.1356 26.3454C22.9458 26.7958 22.8318 27.3917 22.8311 28.0036C22.8282 30.6212 22.8343 33.2394 22.8339 35.8569C22.8339 36.5913 22.7617 37.1505 23.0733 37.58C23.3176 37.9167 23.8629 38.2074 24.5042 38.0191C25.6766 37.6745 25.3689 36.2117 25.3689 34.9571L25.3657 32.0099C25.3711 31.5691 25.4412 31.528 25.4536 31.1162L25.4493 28.1679C25.444 27.7292 25.3608 27.5373 25.6143 27.3517C26.0137 27.4583 25.8597 27.6605 25.8597 28.7419V40.6812C27.91 40.6812 28.4726 41.6121 28.9673 41.7442V36.6742H29.5399C29.5399 37.5435 29.4376 42.0682 29.5739 42.5282C29.6907 42.9227 30.8894 44.2283 29.9149 46.617C29.8154 46.861 29.7633 46.8851 29.7035 47.1418C30.11 47.1418 30.3625 47.1808 30.6298 47.2059C31.013 47.2417 31.0551 47.1011 31.2945 46.9339C31.9995 46.4425 32.2176 46.5303 32.6475 46.3242V29.2327C32.6475 27.2444 32.3993 27.3517 33.0565 27.3517C33.0565 28.1853 32.9743 29.5925 33.0788 30.3552C33.2318 31.4717 32.6804 33.7245 34.6737 33.3874C35.0756 33.3194 36.2611 32.5188 36.6545 32.2585L38.5196 31.0978C38.6931 30.9887 38.7961 30.9388 38.9774 30.8198C39.4852 30.4866 39.9941 30.3149 40.1194 29.5836C40.221 28.9909 39.7087 27.2919 37.6198 28.6446L35.6733 29.8053C35.6733 27.9601 35.9336 25.4948 33.6411 24.7229C32.9963 24.5058 32.2063 24.5717 31.3391 24.5717C31.3118 24.8996 30.8678 25.8726 30.7198 26.2423C30.5944 26.5557 30.5169 26.749 30.3926 27.06C30.3203 27.2413 30.3026 27.2958 30.2318 27.4718C30.2074 27.5323 30.19 27.584 30.1592 27.6446C30.0604 27.8386 30.1291 27.7296 30.0307 27.8429L30.03 27.8425Z" fill="#832B33"/>
<path fill-rule="evenodd" clip-rule="evenodd" d="M27.0043 57.6914V60.39H29.7029L29.7847 57.037C30.0467 57.0427 30.1937 57.0105 30.1937 57.2824V60.39H37.3083V57.037C37.6227 56.9705 37.7991 56.9807 37.7991 57.446V60.39H43.1145L43.1945 57.354C43.2721 56.8207 43.6053 57.1348 43.6053 57.3642V60.39H50.7199V57.3642C50.7199 57.1454 50.8378 57.1224 50.9653 57.037C51.1307 57.1585 51.2107 57.2247 51.2107 57.5278V60.39H53.9093C53.9093 57.684 54.3392 55.5332 51.9883 54.3788C51.6062 54.1911 51.0135 54.0934 50.4745 54.0934H43.8507C42.8663 54.0934 42.0111 54.491 41.4867 55.0002L41.4053 55.0824C40.8957 55.615 40.4977 56.2095 40.4977 57.037H40.4159C40.4159 55.2733 38.9 54.0112 36.9811 54.0112H30.6027C28.3594 54.0112 27.0046 55.474 27.0046 57.6911L27.0043 57.6914Z" fill="#832B33"/>
<path fill-rule="evenodd" clip-rule="evenodd" d="M36.4906 27.8427C36.9825 27.7279 37.4658 27.1543 38.3716 26.9432V21.7096H56.6079V34.794H38.3716V32.6677C37.986 32.7707 36.9219 33.6305 36.4906 33.7307C36.4906 34.8263 36.2109 36.5929 37.3083 36.5929H57.7524C58.1904 36.5929 58.4885 35.9753 58.4885 35.3663V21.137C58.4885 20.1314 58.0197 19.8286 57.0165 19.8286H37.799C36.0739 19.8286 36.4906 21.2925 36.4906 23.1816C36.4906 24.7354 36.4906 26.2892 36.4906 27.843V27.8427Z" fill="#832B33"/>
<path fill-rule="evenodd" clip-rule="evenodd" d="M19.3174 52.1307V54.8293H22.016C22.016 53.9568 21.9207 52.2362 22.0978 51.4763H22.5068C22.6838 52.2362 22.5886 53.9565 22.5886 54.8293H26.1866C26.4203 54.8293 26.477 54.6466 26.5868 54.4933C27.0018 53.914 27.0627 53.8683 27.7231 53.4214C28.3289 53.0114 29.0354 52.7029 30.0304 52.7029C29.9174 52.2178 28.8307 50.4905 29.8668 48.5323C27.523 48.5323 25.1774 48.5408 22.8336 48.532C22.1615 48.5295 21.8273 48.5437 21.3361 48.7515C19.9764 49.3276 19.3177 50.4689 19.3177 52.1304L19.3174 52.1307Z" fill="#832B33"/>
<path fill-rule="evenodd" clip-rule="evenodd" d="M51.4556 50.0867C51.4556 51.2995 51.4528 51.6274 50.8831 52.7035C51.6476 52.7035 52.6309 53.0853 53.1405 53.3901C54.3253 54.0998 54.3727 54.8296 54.7268 54.8296H57.9162V51.8038C57.9162 51.5552 58.0582 51.5261 58.2434 51.4766C58.4088 51.598 58.4888 51.6642 58.4888 51.9674V54.8296H61.1874V52.0492C61.1874 50.0198 59.884 48.5839 57.9191 48.5301C55.6673 48.4685 53.3108 48.5329 51.047 48.5329C51.167 49.0474 51.456 49.3973 51.456 50.0867H51.4556Z" fill="#832B33"/>
<path fill-rule="evenodd" clip-rule="evenodd" d="M37.799 50.2496C37.799 51.9213 37.3996 51.8785 37.2264 52.621C38.2392 52.621 39.0851 52.9511 39.8287 53.4532C40.1343 53.6596 40.2328 53.8338 40.4973 54.0113C41.1099 53.6872 41.3815 53.1515 42.6846 52.8455C42.9654 52.7797 43.3698 52.7769 43.6867 52.7028C43.5705 52.2046 42.771 51.1289 43.2476 49.4015C43.3414 49.0613 43.4969 48.8509 43.5231 48.5322H37.3897C37.5065 49.0336 37.7987 49.3392 37.7987 50.2496H37.799Z" fill="#832B33"/>
<path fill-rule="evenodd" clip-rule="evenodd" d="M33.3831 53.1927H34.0375C35.1607 53.1927 36.4907 51.8623 36.4907 50.7395C36.4907 49.8797 36.4812 49.3273 35.8955 48.6361C33.8243 46.191 29.9848 48.4176 31.0804 51.4066C31.2673 51.9165 31.5506 52.2731 31.9338 52.5978C32.2298 52.8485 32.8743 53.193 33.3831 53.193V53.1927Z" fill="#832B33"/>
<path fill-rule="evenodd" clip-rule="evenodd" d="M44.5046 50.1686C44.5046 51.1038 44.5896 51.7323 45.2578 52.4409C47.0545 54.3467 50.5244 52.8697 50.0453 49.9455C49.7174 47.9445 46.9444 46.6587 45.1381 48.6761C44.8697 48.976 44.5046 49.6371 44.5046 50.1686Z" fill="#832B33"/>
<path fill-rule="evenodd" clip-rule="evenodd" d="M38.2076 44.607C38.2076 45.6077 38.2767 46.1693 39.1262 46.9597C41.5422 49.2075 45.4441 45.8351 43.0107 42.9937C42.5415 42.4456 41.8503 42.1892 41.107 42.1156C40.3928 42.0451 39.5677 42.3939 39.1662 42.7852C38.7547 43.186 38.208 43.8415 38.208 44.607H38.2076Z" fill="#832B33"/>
<path fill-rule="evenodd" clip-rule="evenodd" d="M23.3243 44.6068C23.3243 45.6695 23.3831 46.105 24.2422 46.9602C25.3689 48.0816 27.728 47.93 28.6153 46.0544C29.2733 44.6638 28.5874 42.9825 27.3335 42.3968C27.0123 42.2471 26.6908 42.161 26.2237 42.1157C25.149 42.0112 24.0418 42.7655 23.6476 43.5402C23.5258 43.7796 23.3243 44.2484 23.3243 44.6071V44.6068Z" fill="#832B33"/>
<path fill-rule="evenodd" clip-rule="evenodd" d="M51.6193 44.9335C51.6193 47.1997 54.3781 48.653 56.2807 46.9781C58.5724 44.9604 56.1801 40.9764 53.1423 42.4495L52.5261 42.8963C52.5141 42.908 52.4967 42.925 52.4847 42.9367C52.0318 43.3907 51.6193 44.1017 51.6193 44.9331V44.9335Z" fill="#832B33"/>
<path fill-rule="evenodd" clip-rule="evenodd" d="M29.0487 23.7539C29.655 23.7539 29.8069 23.7638 30.4142 23.4837C31.2197 23.1119 31.9046 22.1172 31.9039 21.1374C31.9017 17.8361 26.808 17.5252 26.6192 21.0715C26.547 22.4263 27.8324 23.7535 29.0484 23.7535L29.0487 23.7539Z" fill="#832B33"/>
<path fill-rule="evenodd" clip-rule="evenodd" d="M40.2522 27.2701C40.4388 27.5488 40.9314 27.7383 41.0698 28.3332C41.4236 28.2386 43.318 26.6299 43.7677 26.2879C44.0209 26.0952 44.5046 25.8212 44.5046 25.3891C44.5046 24.9851 44.1728 24.6533 43.7688 24.6533C43.3874 24.6533 42.3067 25.6168 41.9696 25.8799L40.2522 27.2701Z" fill="#832B33"/>
</svg>
